<svg width="20" height="20" viewBox="0 0 20 20" fill="none" xmlns="http://www.w3.org/2000/svg">
    <path
        d="M10 0C4.47714 0 0 4.47714 0 10C0 15.5229 4.47714 20 10 20C15.5229 20 20 15.5229 20 10C20 4.47714 15.5229 0 10 0ZM10 1.93548C14.4569 1.93548 18.0645 5.54238 18.0645 10C18.0645 14.4569 14.4576 18.0645 10 18.0645C5.54306 18.0645 1.93548 14.4576 1.93548 10C1.93548 5.54306 5.54238 1.93548 10 1.93548Z"
        fill="black" />
    <line x1="10" y1="5" x2="10" y2="15" stroke="black" stroke-width="2" />
    <line x1="5" y1="10" x2="15" y2="10" stroke="black" stroke-width="2" />
</svg>
