<svg width="20" height="22" viewBox="0 0 16 22" fill="none" xmlns="http://www.w3.org/2000/svg">
<path d="M5.28893 9.8539C4.94819 9.8539 4.59263 9.74476 4.28152 9.52647C3.85189 9.23023 3.57041 8.77807 3.48152 8.29472C3.363 7.59309 3.64448 6.81351 4.22226 6.23661C4.78522 5.6909 5.51115 5.39465 6.22226 5.19196C6.04448 5.09841 5.85189 4.97368 5.68893 4.81776C5.45189 4.58388 5.33337 4.25645 5.31856 3.88225C5.31856 3.53923 5.42226 3.19621 5.61485 2.89997C5.77782 2.6505 5.88152 2.51017 6.17782 2.15156C6.2667 2.05801 6.40004 2.04242 6.48893 2.13597C6.57782 2.22952 6.59263 2.36985 6.50374 2.4634C6.22226 2.79083 6.13337 2.91556 5.97041 3.16503C5.82226 3.38331 5.74819 3.63278 5.74819 3.88225C5.74819 4.13172 5.82226 4.33441 5.97041 4.49033C6.37041 4.89572 7.03707 4.98927 7.03707 4.98927C7.14078 5.00486 7.22967 5.09841 7.22967 5.20755C7.22967 5.31669 7.17041 5.42584 7.0667 5.44143L6.88893 5.4882C6.02967 5.72208 5.12596 5.95596 4.50374 6.57963C4.04448 7.03179 3.80744 7.65546 3.89633 8.21676C3.95559 8.57538 4.17781 8.9028 4.50374 9.13668C4.82967 9.35496 5.20004 9.43292 5.54078 9.35496C6.0593 9.21464 6.4593 8.79366 6.8593 8.32591C7.17041 7.98289 7.48152 7.62428 7.88152 7.37481C8.59263 6.93824 9.48152 6.89146 10.2223 7.26567C10.326 7.32803 10.3852 7.46836 10.326 7.5775C10.2667 7.68664 10.1334 7.74901 10.0297 7.68664C9.43707 7.37481 8.68152 7.40599 8.10374 7.7646C7.763 7.98289 7.48152 8.29472 7.17041 8.62215C6.72596 9.1055 6.28152 9.62002 5.62967 9.77594C5.54078 9.83831 5.42226 9.8539 5.28893 9.8539Z" fill="white"/>
<path d="M3.58527 17.1041C3.42231 17.1041 3.25935 17.0885 3.1112 17.0729C3.06676 17.0729 3.0075 17.0573 2.96305 17.0573C2.84453 17.0261 2.78527 16.9014 2.80009 16.7766C2.82972 16.6519 2.93342 16.574 3.05194 16.5895C3.08157 16.5895 3.1112 16.6051 3.12601 16.6051C3.15564 16.6051 3.17046 16.5895 3.2149 16.574C3.31861 16.5116 3.4075 16.3557 3.42231 16.2153C3.43713 16.075 3.43713 15.9347 3.42231 15.7944C3.4075 15.6073 3.4075 15.4202 3.43713 15.2331C3.52601 14.7497 3.85194 14.3287 4.45935 13.9234C4.53342 13.8766 4.6075 13.8298 4.69639 13.7674C5.03713 13.5491 5.36305 13.3465 5.57046 13.0346C5.79268 12.7072 5.89639 12.255 5.85194 11.7561C5.8075 11.2883 5.65935 10.805 5.52601 10.3528C5.48157 10.2281 5.55564 10.1034 5.65935 10.0566C5.77787 10.0098 5.89639 10.0878 5.94083 10.1969C6.08898 10.6803 6.25194 11.1792 6.29639 11.7093C6.34083 12.3174 6.22231 12.8943 5.94083 13.2997C5.67416 13.6895 5.30379 13.9234 4.93342 14.1572C4.85935 14.204 4.78527 14.2508 4.7112 14.2976C4.2075 14.625 3.95564 14.9524 3.89639 15.2954C3.86676 15.4358 3.88157 15.5917 3.88157 15.7476C3.89639 15.9191 3.89639 16.0906 3.86676 16.2621C3.85194 16.3869 3.8075 16.5116 3.74824 16.6207C3.82231 16.6207 3.89639 16.6051 3.97046 16.5895C4.26676 16.5272 4.51861 16.3713 4.66676 16.153C4.72601 16.0594 4.77046 15.9503 4.8149 15.8411C4.88898 15.6696 4.96305 15.4825 5.09639 15.3266C5.39268 14.9992 5.82231 14.9212 6.16305 14.89C6.40009 14.8744 6.65194 14.8589 6.88898 14.8589C7.60009 14.8433 8.28157 14.8121 8.84453 14.4535C9.2149 14.204 9.52601 13.7986 9.8075 13.1905C10.1186 12.5201 10.4593 11.491 10.3112 10.3996C10.2964 10.3061 10.1779 9.93185 10.1482 9.8539C10.089 9.74475 10.1186 9.60443 10.2223 9.52647C10.326 9.4641 10.4593 9.47969 10.5186 9.58884C10.6075 9.72916 10.7408 10.1969 10.7556 10.3216C10.889 11.2727 10.6964 12.333 10.2075 13.3932C9.88157 14.0949 9.52601 14.547 9.08157 14.8433C8.42972 15.2798 7.65935 15.2954 6.90379 15.3266C6.66676 15.3266 6.42972 15.3422 6.2075 15.3578C5.94083 15.389 5.6149 15.4358 5.42231 15.654C5.33342 15.7476 5.27416 15.8879 5.2149 16.0438C5.15564 16.1686 5.1112 16.3089 5.02231 16.4336C4.8149 16.7455 4.47416 16.9793 4.05935 17.0729C3.89639 17.0885 3.73342 17.1041 3.58527 17.1041Z" fill="white"/>
<path d="M10.5038 9.88514C10.1186 9.88514 9.73343 9.79159 9.4075 9.60449C9.3038 9.54212 9.25935 9.40179 9.31861 9.29265C9.37787 9.18351 9.5112 9.13673 9.61491 9.1991C10.2668 9.5733 11.1112 9.49534 11.689 9.012C11.9705 8.77812 12.1631 8.4507 12.1927 8.15445C12.2075 7.96735 12.1927 7.78025 12.1038 7.53078C11.7334 6.42376 10.7112 5.90924 9.92602 5.67536C9.79268 5.62858 9.64454 5.5974 9.46676 5.55062C9.43713 5.55062 9.39268 5.53503 9.34824 5.51944C9.3038 5.50385 9.18528 5.47267 9.14083 5.45707C9.06676 5.47267 8.99268 5.45707 8.94824 5.4103C8.91861 5.42589 8.87417 5.42589 8.82972 5.42589C8.00009 5.25438 7.14083 5.47267 7.12602 5.47267C7.05194 5.48826 6.97787 5.47267 6.91861 5.4103C6.72602 5.2232 6.62231 4.98932 6.62231 4.70867C6.62231 4.33447 6.80009 4.06941 6.87417 3.96026C6.88898 3.94467 6.88898 3.92908 6.9038 3.91349C6.96305 3.81994 7.21491 3.49251 7.25935 3.41455C7.33343 3.321 7.48157 3.28982 7.57046 3.38337C7.65935 3.46133 7.68898 3.61724 7.60009 3.7108C7.48157 3.86671 7.3038 4.10059 7.27417 4.16296C7.25935 4.17855 7.24454 4.20973 7.22972 4.22532C7.15565 4.31887 7.05194 4.47479 7.06676 4.69308C7.06676 4.8334 7.1112 4.92695 7.15565 4.98932C7.43713 4.94255 8.11861 4.8334 8.81491 4.95814C8.84454 4.91136 8.88898 4.81781 8.87417 4.6463C8.82972 4.2721 8.5038 3.96026 8.25194 3.72639C8.11861 3.60165 7.95565 3.49251 7.8075 3.38337C7.62972 3.25863 7.46676 3.1339 7.34824 3.00917L7.3038 2.9468C7.1112 2.72851 6.81491 2.40109 6.80009 1.77741C6.80009 1.10697 7.36306 0.452114 7.9112 0.0779109C8.00009 0.0155438 8.1038 0.0311355 8.17787 0.0935027C8.25194 0.15587 8.28157 0.280604 8.23713 0.374155C8.23713 0.374155 8.13343 0.59244 8.16305 0.795133C8.19268 1.02901 8.23713 1.24729 8.44454 1.48117C8.68157 1.76182 8.84454 1.90215 9.15565 2.12043C9.48157 2.3699 9.85194 2.7597 10.0297 3.04035C10.2075 3.28982 10.4445 3.6952 10.4594 4.17855C10.4742 4.69308 10.1779 4.97373 9.85194 5.14524C9.92602 5.16083 9.98528 5.17642 10.0445 5.20761C11.3186 5.5974 12.1631 6.33021 12.5186 7.35927C12.5927 7.56196 12.6668 7.85821 12.6371 8.18564C12.5927 8.6222 12.3556 9.02759 11.9705 9.35502C11.5556 9.69804 11.0223 9.88514 10.5038 9.88514ZM7.71861 0.810724C7.45194 1.09138 7.24454 1.4188 7.24454 1.74623C7.24454 2.1828 7.45194 2.40109 7.61491 2.58819L7.67417 2.65055C7.74824 2.74411 7.89639 2.83766 8.05935 2.9468C8.22231 3.05594 8.40009 3.19627 8.54824 3.33659C8.82972 3.60165 9.24454 3.99145 9.3038 4.53716C9.31861 4.66189 9.31861 4.77104 9.28898 4.86459C9.73343 4.69308 10.0001 4.55275 9.98528 4.17855C9.97046 3.81994 9.77787 3.5081 9.64454 3.30541C9.48157 3.07153 9.15565 2.69733 8.85935 2.49464C8.51861 2.22958 8.32602 2.07366 8.07417 1.77741C7.82231 1.44999 7.76305 1.12256 7.71861 0.810724Z" fill="white"/>
<path d="M3.43711 21.9999C3.33341 21.9999 3.22971 21.9687 3.14082 21.9064C2.96304 21.7816 2.85934 21.5789 2.88897 21.3451L3.15563 19.131C3.15563 19.0998 3.14082 19.0843 3.14082 19.0687C3.126 19.0531 3.11119 19.0375 3.08156 19.0375H2.20748C0.99267 19.0375 0.0148926 17.9928 0.0148926 16.7299V8.51303C0.0148926 7.2345 1.00748 6.20544 2.20748 6.20544C2.326 6.20544 2.42971 6.31459 2.42971 6.43932C2.42971 6.56406 2.326 6.6732 2.20748 6.6732C1.22971 6.65761 0.444522 7.48397 0.444522 8.51303V16.7455C0.444522 17.759 1.22971 18.5853 2.19267 18.5853H3.06674C3.21489 18.5853 3.36304 18.6477 3.45193 18.7724C3.55563 18.8972 3.60008 19.0531 3.58526 19.209L3.3186 21.423C3.3186 21.4854 3.34823 21.5166 3.36304 21.5322C3.37786 21.5478 3.4223 21.5633 3.46674 21.5322L7.7186 18.6789C7.80748 18.6165 7.89637 18.5853 8.00008 18.5853H13.763C14.726 18.5853 15.5112 17.759 15.5112 16.7455V8.51303C15.5112 7.49956 14.726 6.6732 13.763 6.6732C13.6445 6.6732 13.5408 6.56406 13.5408 6.43932C13.5408 6.31459 13.6445 6.20544 13.763 6.20544C14.9779 6.20544 15.9556 7.25009 15.9556 8.51303V16.7455C15.9556 18.024 14.963 19.0531 13.763 19.0531H8.02971C8.01489 19.0531 8.00008 19.0531 7.98526 19.0687L3.73341 21.922C3.64452 21.9687 3.54082 21.9999 3.43711 21.9999Z" fill="white"/>
<path d="M13.1555 16.995H8.35552C8.237 16.995 8.1333 16.8858 8.1333 16.7611C8.1333 16.6364 8.237 16.5272 8.35552 16.5272H13.1407C13.2592 16.5272 13.3629 16.6364 13.3629 16.7611C13.3629 16.8858 13.274 16.995 13.1555 16.995Z" fill="white"/>
<path d="M13.0816 15.1084H11.2298C11.1113 15.1084 11.0076 14.9992 11.0076 14.8745C11.0076 14.7498 11.1113 14.6406 11.2298 14.6406H13.0816C13.2002 14.6406 13.3039 14.7498 13.3039 14.8745C13.3039 14.9992 13.215 15.1084 13.0816 15.1084Z" fill="white"/>
</svg>
