<svg width="41" height="41" viewBox="0 0 41 41" fill="none" xmlns="http://www.w3.org/2000/svg">
<path d="M12.8125 15.3749H14.5208M14.5208 15.3749H28.1875M14.5208 15.3749V27.3333C14.5208 27.7863 14.7008 28.2209 15.0212 28.5412C15.3416 28.8616 15.7761 29.0416 16.2292 29.0416H24.7708C25.2239 29.0416 25.6584 28.8616 25.9788 28.5412C26.2992 28.2209 26.4792 27.7863 26.4792 27.3333V15.3749H14.5208ZM17.0833 15.3749V13.6666C17.0833 13.2135 17.2633 12.779 17.5837 12.4586C17.9041 12.1382 18.3386 11.9583 18.7917 11.9583H22.2083C22.6614 11.9583 23.0959 12.1382 23.4163 12.4586C23.7367 12.779 23.9167 13.2135 23.9167 13.6666V15.3749M18.7917 19.6458V24.7708M22.2083 19.6458V24.7708" stroke="white" stroke-linecap="round" stroke-linejoin="round"/>
<rect x="0.5" y="0.5" width="40" height="40" rx="20" stroke="white"/>
</svg>
