<svg width="15" height="15" viewBox="0 0 15 15" fill="none" xmlns="http://www.w3.org/2000/svg">
<path d="M6.9375 2.99988H3C2.70163 2.99988 2.41548 3.11841 2.2045 3.32939C1.99353 3.54037 1.875 3.82651 1.875 4.12488V11.9999C1.875 12.2983 1.99353 12.5844 2.2045 12.7954C2.41548 13.0064 2.70163 13.1249 3 13.1249H10.875C11.1734 13.1249 11.4595 13.0064 11.6705 12.7954C11.8815 12.5844 12 12.2983 12 11.9999V8.06238M11.1562 2.15613C11.38 1.93236 11.6835 1.80664 12 1.80664C12.3165 1.80664 12.62 1.93236 12.8438 2.15613C13.0675 2.37991 13.1932 2.68342 13.1932 2.99988C13.1932 3.31635 13.0675 3.61986 12.8438 3.84363L7.5 9.18738L5.25 9.74988L5.8125 7.49988L11.1562 2.15613Z" stroke="white" stroke-linecap="round" stroke-linejoin="round"/>
</svg>
