<svg width="24" height="24" viewBox="0 0 24 24" fill="none" xmlns="http://www.w3.org/2000/svg">
<path d="M16.4633 0.992676H7.65796C3.25529 0.992676 1.05396 3.19401 1.05396 7.59668V21.9054C1.05396 22.5107 1.54926 23.006 2.15462 23.006H16.4633C20.866 23.006 23.0673 20.8047 23.0673 16.402V7.59668C23.0673 3.19401 20.866 0.992676 16.4633 0.992676Z" stroke="#090A0A" stroke-width="1.651" stroke-linecap="round" stroke-linejoin="round"/>
<path d="M13.0619 7.42038L7.34944 13.1328C7.12931 13.353 6.92018 13.7822 6.87615 14.0904L6.56797 16.2697C6.4579 17.0622 7.00823 17.6126 7.80071 17.5025L9.97999 17.1943C10.2882 17.1503 10.7174 16.9411 10.9376 16.721L16.65 11.0085C17.6296 10.029 18.1029 8.88427 16.65 7.43139C15.1972 5.9675 14.0525 6.42978 13.0619 7.42038Z" stroke="#090A0A" stroke-width="1.651" stroke-miterlimit="10" stroke-linecap="round" stroke-linejoin="round"/>
<path d="M12.2475 8.23486C12.7318 9.96288 14.0856 11.3277 15.8246 11.812" stroke="#090A0A" stroke-width="1.651" stroke-miterlimit="10" stroke-linecap="round" stroke-linejoin="round"/>
</svg>
