<svg width="23" height="24" viewBox="0 0 23 24" fill="none" xmlns="http://www.w3.org/2000/svg">
<path d="M3.27579 23.575C2.43469 23.575 1.60495 23.2568 0.96844 22.6203C0.354663 22.0065 0.0136757 21.1881 0.0136757 20.3129C0.0136757 19.4377 0.354663 18.6193 0.96844 18.0056L15.7446 3.22942C17.0176 1.9564 19.0863 1.9564 20.3593 3.22942C20.9731 3.8432 21.3141 4.66157 21.3141 5.53677C21.3141 6.41197 20.9731 7.23034 20.3593 7.84412L5.58313 22.6203C4.94662 23.2568 4.11689 23.575 3.27579 23.575ZM18.0519 3.97959C17.6541 3.97959 17.2563 4.12736 16.9494 4.43424L2.17326 19.2104C1.87774 19.5059 1.71861 19.8924 1.71861 20.3129C1.71861 20.7335 1.87774 21.1199 2.17326 21.4154C2.77567 22.0178 3.7759 22.0178 4.37831 21.4154L19.1545 6.63929C19.45 6.34377 19.6091 5.95732 19.6091 5.53677C19.6091 5.11622 19.45 4.72977 19.1545 4.43424C18.8476 4.12736 18.4498 3.97959 18.0519 3.97959Z" fill="#090A0A"/>
<path d="M18.0615 9.78824C17.8455 9.78824 17.6295 9.70867 17.459 9.53818L14.0492 6.12831C13.7196 5.79869 13.7196 5.25311 14.0492 4.92349C14.3788 4.59386 14.9244 4.59386 15.254 4.92349L18.6639 8.33336C18.9935 8.66298 18.9935 9.20856 18.6639 9.53818C18.4934 9.70867 18.2774 9.78824 18.0615 9.78824Z" fill="#090A0A"/>
<path d="M8.95701 4.96878C8.90018 4.96878 8.85471 4.95742 8.79788 4.94605L7.25207 4.4914L5.70627 4.94605C5.50167 5.00288 5.28571 4.94605 5.14932 4.79829C5.00156 4.65053 4.94473 4.44594 5.00156 4.24135L5.45621 2.69554L5.00156 1.14973C4.94473 0.945135 5.00156 0.729177 5.14932 0.592782C5.29708 0.445021 5.51304 0.38819 5.70627 0.445021L7.25207 0.89967L8.79788 0.445021C9.00251 0.38819 9.2071 0.445021 9.35486 0.592782C9.50262 0.740543 9.55945 0.956501 9.50262 1.14973L9.04797 2.69554L9.50262 4.24135C9.55945 4.44594 9.50262 4.6619 9.35486 4.79829C9.25257 4.91195 9.1048 4.96878 8.95701 4.96878ZM7.25207 3.33205C7.30891 3.33205 7.35438 3.34341 7.41121 3.35478L8.11592 3.55937L7.91132 2.85466C7.87722 2.75237 7.87722 2.63871 7.91132 2.53641L8.11592 1.8317L7.41121 2.03629C7.30892 2.07039 7.19524 2.07039 7.09295 2.03629L6.38824 1.8317L6.59283 2.53641C6.62693 2.63871 6.62693 2.75237 6.59283 2.85466L6.38824 3.55937L7.09295 3.35478C7.14978 3.34341 7.19524 3.33205 7.25207 3.33205Z" fill="#090A0A"/>
<path d="M4.41091 11.7887C4.35408 11.7887 4.30862 11.7773 4.25179 11.7659L2.70597 11.3113L1.16016 11.7659C0.955569 11.8228 0.750976 11.7659 0.603215 11.6182C0.455454 11.4704 0.398623 11.2545 0.455454 11.0612L0.910104 9.51536L0.455454 7.96955C0.398623 7.76496 0.455454 7.549 0.603215 7.41261C0.750976 7.27621 0.966935 7.20801 1.16016 7.26484L2.70597 7.71949L4.25179 7.26484C4.44502 7.20801 4.66096 7.26485 4.80872 7.41261C4.95649 7.56037 5.01333 7.77633 4.95649 7.96955L4.50184 9.51536L4.95649 11.0612C5.01333 11.2658 4.95649 11.4818 4.80872 11.6182C4.70643 11.7318 4.55868 11.7887 4.41091 11.7887ZM2.70597 10.1519C2.7628 10.1519 2.80827 10.1633 2.8651 10.1747L3.56982 10.3793L3.36521 9.67449C3.33111 9.57219 3.33111 9.45853 3.36521 9.35623L3.56982 8.65153L2.8651 8.85612C2.7628 8.89022 2.64914 8.89022 2.54684 8.85612L1.84214 8.65153L2.04673 9.35623C2.08083 9.45853 2.08083 9.57219 2.04673 9.67449L1.84214 10.3793L2.54684 10.1747C2.60367 10.1633 2.64914 10.1519 2.70597 10.1519Z" fill="#090A0A"/>
<path d="M21.46 17.4717C21.4032 17.4717 21.3577 17.4603 21.3009 17.449L19.7551 16.9943L18.2093 17.449C18.0047 17.5058 17.8001 17.449 17.6523 17.3012C17.5045 17.1535 17.4477 16.9375 17.5045 16.7443L17.9592 15.1985L17.5045 13.6527C17.4477 13.4481 17.5045 13.2321 17.6523 13.0957C17.8001 12.9593 18.016 12.8911 18.2093 12.948L19.7551 13.4026L21.3009 12.948C21.4941 12.8911 21.7101 12.948 21.8578 13.0957C22.0056 13.2435 22.0624 13.4594 22.0056 13.6527L21.5509 15.1985L22.0056 16.7443C22.0624 16.9489 22.0056 17.1648 21.8578 17.3012C21.7555 17.4149 21.6078 17.4717 21.46 17.4717ZM19.7551 15.835C19.8119 15.835 19.8574 15.8463 19.9142 15.8577L20.6189 16.0623L20.4143 15.3576C20.3802 15.2553 20.3802 15.1416 20.4143 15.0393L20.6189 14.3346L19.9142 14.5392C19.8119 14.5733 19.6982 14.5733 19.5959 14.5392L18.8912 14.3346L19.0958 15.0393C19.1299 15.1416 19.1299 15.2553 19.0958 15.3576L18.8912 16.0623L19.5959 15.8577C19.6528 15.8463 19.6982 15.835 19.7551 15.835Z" fill="#090A0A"/>
</svg>
