<svg width="24" height="22" viewBox="0 0 24 22" fill="none" xmlns="http://www.w3.org/2000/svg">
<path d="M1.04037 7.14868H11.4925" stroke="#090A0A" stroke-width="1.65034" stroke-miterlimit="10" stroke-linecap="round" stroke-linejoin="round"/>
<path d="M5.44133 15.9504H7.64178" stroke="#090A0A" stroke-width="1.65034" stroke-miterlimit="10" stroke-linecap="round" stroke-linejoin="round"/>
<path d="M10.3922 15.9504H14.7931" stroke="#090A0A" stroke-width="1.65034" stroke-miterlimit="10" stroke-linecap="round" stroke-linejoin="round"/>
<path d="M1.04039 9.93216V6.47745C1.04039 2.61566 2.01959 1.64746 5.92539 1.64746H14.7932" stroke="#090A0A" stroke-width="1.65034" stroke-linecap="round" stroke-linejoin="round"/>
<path d="M23.0449 11.0325V15.5214C23.0449 19.3832 22.0657 20.3514 18.1599 20.3514H5.92537C2.01958 20.3514 1.04037 19.3832 1.04037 15.5214V14.3001" stroke="#090A0A" stroke-width="1.65034" stroke-linecap="round" stroke-linejoin="round"/>
<path d="M19.8327 2.34069L15.7509 6.42252C15.5969 6.57655 15.4428 6.88462 15.4098 7.10466L15.1898 8.66698C15.1128 9.22814 15.5089 9.62422 16.07 9.54721L17.6323 9.32716C17.8523 9.29415 18.1604 9.14012 18.3144 8.98609L22.3963 4.90421C23.1004 4.20007 23.4305 3.3859 22.3963 2.35169C21.3511 1.30648 20.5369 1.63654 19.8327 2.34069Z" stroke="#090A0A" stroke-width="1.65034" stroke-miterlimit="10" stroke-linecap="round" stroke-linejoin="round"/>
<path d="M19.2506 2.92358C19.6027 4.16684 20.5709 5.13504 21.8031 5.47611" stroke="#090A0A" stroke-width="1.65034" stroke-miterlimit="10" stroke-linecap="round" stroke-linejoin="round"/>
</svg>
