<svg width="23" height="24" viewBox="0 0 23 24" fill="none" xmlns="http://www.w3.org/2000/svg">
<path d="M7.86453 1.75977H3.86089C1.79252 1.75977 0.768571 2.78371 0.768571 4.85209V8.86597C0.768571 10.9753 1.79252 11.9992 3.86089 11.9481H7.87477C9.98411 11.9992 11.0081 10.9753 10.9569 8.85573V4.85209C11.0081 2.78371 9.98411 1.75977 7.86453 1.75977ZM7.94645 9.70561C7.25016 9.70561 6.57436 9.43938 6.01119 8.96836C5.37634 9.42914 4.60838 9.70561 3.77898 9.70561C3.35916 9.70561 3.01102 9.35746 3.01102 8.93764C3.01102 8.51783 3.35916 8.16968 3.77898 8.16968C4.82341 8.16968 5.69376 7.45292 6.01119 6.46993H3.77898C3.35916 6.46993 3.01102 6.12179 3.01102 5.70197C3.01102 5.28215 3.35916 4.93401 3.77898 4.93401H5.09987C5.14083 4.54491 5.45825 4.23772 5.85759 4.23772C6.25693 4.23772 6.57436 4.54491 6.61532 4.93401H6.88154H6.90202H6.9225H7.93621C8.35603 4.93401 8.70417 5.28215 8.70417 5.70197C8.70417 6.12179 8.36627 6.46993 7.93621 6.46993H7.59831C7.50615 6.96142 7.3116 7.4222 7.05561 7.84202C7.33208 8.04681 7.62903 8.16968 7.94645 8.16968C8.36627 8.16968 8.71441 8.51783 8.71441 8.93764C8.71441 9.35746 8.36627 9.70561 7.94645 9.70561Z" fill="#090A0A"/>
<path d="M7.93574 23.0068C3.56348 23.0068 0.000135819 19.4434 0.000135819 15.0712C0.000135819 14.6514 0.348278 14.3032 0.768097 14.3032C1.18792 14.3032 1.53606 14.6514 1.53606 15.0712C1.53606 18.1021 3.64539 20.6415 6.48173 21.307L6.20526 20.8463C5.99023 20.4776 6.10287 20.0066 6.47149 19.7916C6.82987 19.5766 7.31113 19.6892 7.52616 20.0578L8.6013 21.8497C8.74466 22.0852 8.74466 22.3822 8.61154 22.6177C8.46819 22.8532 8.2122 23.0068 7.93574 23.0068Z" fill="#090A0A"/>
<path d="M21.2459 9.69551C20.826 9.69551 20.4779 9.34736 20.4779 8.92754C20.4779 5.89666 18.3686 3.35726 15.5322 2.6917L15.8087 3.15247C16.0237 3.5211 15.9111 3.99211 15.5425 4.20714C15.1841 4.42217 14.7028 4.30954 14.4878 3.94091L13.4126 2.14901C13.2693 1.9135 13.2693 1.61655 13.4024 1.38104C13.5458 1.14554 13.8017 0.991943 14.0782 0.991943C18.4505 0.991943 22.0138 4.55528 22.0138 8.92754C22.0138 9.34736 21.6657 9.69551 21.2459 9.69551Z" fill="#090A0A"/>
<path d="M16.0454 11.8474C13.1783 11.8474 10.8437 14.1718 10.8437 17.0491C10.8437 19.9161 13.1681 22.2507 16.0454 22.2507C18.9124 22.2507 21.247 19.9264 21.247 17.0491C21.247 14.1718 18.9226 11.8474 16.0454 11.8474ZM18.5847 19.5168C18.2059 19.7011 17.7451 19.5577 17.5506 19.1686L17.3765 18.8205H14.7245L14.5504 19.1686C14.4173 19.4349 14.1408 19.5885 13.8643 19.5885C13.7517 19.5885 13.6288 19.5577 13.5264 19.5065C13.1476 19.312 12.994 18.8512 13.1783 18.4724L15.3695 14.1001C15.5027 13.8441 15.7689 13.6803 16.0556 13.6803C16.3423 13.6803 16.6085 13.8441 16.7416 14.1103L18.9329 18.4826C19.1172 18.8615 18.9636 19.3222 18.5847 19.5168Z" fill="#090A0A"/>
<path d="M15.4914 17.2833H16.6075L16.0443 16.1672L15.4914 17.2833Z" fill="#090A0A"/>
</svg>
