<svg width="23" height="24" viewBox="0 0 23 24" fill="none" xmlns="http://www.w3.org/2000/svg">
<path d="M9.07989 23.9985C8.81311 23.9985 8.55781 23.8825 8.38387 23.6506L7.21235 22.0847C6.96877 21.7599 6.64403 21.5743 6.29606 21.5511C5.93648 21.5279 5.60008 21.6903 5.3217 21.9803C3.63983 23.7782 2.36394 23.6274 1.74919 23.3954C1.12284 23.1518 0.0673065 22.3515 0.0673065 19.7765V6.71589C0.0673065 1.56589 1.55199 0 6.41201 0H15.1694C20.0294 0 21.5141 1.56589 21.5141 6.71589V11.6571C21.5141 12.1327 21.1198 12.527 20.6442 12.527C20.1686 12.527 19.7743 12.1327 19.7743 11.6571V6.71589C19.7743 2.52862 19.0435 1.73986 15.1694 1.73986H6.41201C2.53791 1.73986 1.80717 2.52862 1.80717 6.71589V19.7765C1.80717 20.9944 2.10875 21.6671 2.38713 21.7715C2.59591 21.8527 3.16429 21.7367 4.04582 20.7972C4.68377 20.1244 5.51889 19.7649 6.38883 19.8113C7.24716 19.8577 8.05911 20.31 8.60421 21.0408L9.78732 22.6066C10.0773 22.9894 9.9961 23.5346 9.61333 23.8245C9.43934 23.9521 9.25387 23.9985 9.07989 23.9985Z" fill="#090A0A"/>
<path d="M15.4133 7.53943H6.13405C5.65848 7.53943 5.26411 7.14506 5.26411 6.66949C5.26411 6.19393 5.65848 5.79956 6.13405 5.79956H15.4133C15.8889 5.79956 16.2833 6.19393 16.2833 6.66949C16.2833 7.14506 15.8889 7.53943 15.4133 7.53943Z" fill="#090A0A"/>
<path d="M14.2538 12.1791H7.29437C6.81881 12.1791 6.42444 11.7847 6.42444 11.3091C6.42444 10.8336 6.81881 10.4392 7.29437 10.4392H14.2538C14.7294 10.4392 15.1238 10.8336 15.1238 11.3091C15.1238 11.7847 14.7294 12.1791 14.2538 12.1791Z" fill="#090A0A"/>
<path d="M14.0439 23.8131C13.6032 23.8131 13.1856 23.6507 12.884 23.3491C12.5245 22.9895 12.3621 22.4676 12.4433 21.9224L12.6636 20.3565C12.7216 19.9506 12.9652 19.4634 13.2552 19.1734L17.3613 15.0673C17.918 14.5106 18.4632 14.2206 19.0548 14.1626C19.7739 14.093 20.493 14.3946 21.1658 15.0673C21.8385 15.7401 22.1401 16.4476 22.0705 17.1784C22.0125 17.7583 21.7109 18.3151 21.1658 18.8719L17.0597 22.9779C16.7697 23.2679 16.2826 23.5115 15.8766 23.5695L14.3106 23.7899C14.2178 23.8015 14.1367 23.8131 14.0439 23.8131ZM19.2519 15.8909C19.2403 15.8909 19.2287 15.8909 19.2171 15.8909C19.0547 15.9025 18.8344 16.0533 18.5908 16.2969L14.4847 20.4029C14.4499 20.4377 14.3919 20.5537 14.3919 20.6001L14.1831 22.05L15.633 21.8412C15.6794 21.8296 15.7953 21.7716 15.8301 21.7368L19.9363 17.6307C20.1799 17.3756 20.3306 17.1668 20.3422 17.0044C20.3654 16.7724 20.1335 16.494 19.9363 16.2969C19.7507 16.1113 19.4839 15.8909 19.2519 15.8909Z" fill="#090A0A"/>
<path d="M19.9609 19.7183C19.8797 19.7183 19.7985 19.7067 19.7289 19.6835C18.1978 19.2543 16.9799 18.0364 16.5508 16.5053C16.4232 16.0414 16.69 15.5658 17.1539 15.4266C17.6179 15.299 18.0935 15.5658 18.221 16.0298C18.4878 16.9809 19.2418 17.7348 20.1929 18.0016C20.6569 18.1292 20.9236 18.6164 20.796 19.0803C20.6916 19.4631 20.3437 19.7183 19.9609 19.7183Z" fill="#090A0A"/>
</svg>
