<svg width="20" height="22" viewBox="0 0 20 22" fill="none" xmlns="http://www.w3.org/2000/svg">
<path d="M19.1748 20.8017H12.9517C12.8253 20.8017 12.7148 20.6899 12.7148 20.562C12.7148 20.4342 12.8253 20.3224 12.9517 20.3224H18.9379V5.54388L10.4087 0.511203L0.473843 5.54388V20.3224H3.9329C4.05925 20.3224 4.16982 20.4342 4.16982 20.562C4.16982 20.6899 4.05925 20.8017 3.9329 20.8017H0.236921C0.110563 20.8017 0 20.6899 0 20.562V5.40009C0 5.30423 0.0473843 5.22435 0.126358 5.19239L10.314 0.0318997C10.393 -5.38109e-05 10.4719 -5.38109e-05 10.5351 0.0318997L19.3012 5.19239C19.3802 5.24032 19.4118 5.32021 19.4118 5.40009V20.562C19.4118 20.6899 19.3012 20.8017 19.1748 20.8017Z" fill="white"/>
<path d="M7.50253 13.6441C7.09187 13.6441 6.68121 13.5163 6.30213 13.2766C5.7967 12.9411 5.44921 12.4299 5.35445 11.8866C5.21229 11.0878 5.54398 10.1931 6.22316 9.55404C6.90233 8.89899 7.81843 8.57946 8.68714 8.3398C8.45022 8.22797 8.1975 8.08418 7.97638 7.87648C7.69207 7.60487 7.54992 7.25338 7.54992 6.82201C7.54992 6.42259 7.67628 6.03915 7.8974 5.70364C8.10273 5.41606 8.2133 5.25629 8.57658 4.85687C8.67135 4.76101 8.8135 4.74503 8.90827 4.84089C9.00304 4.93675 9.01883 5.08055 8.92406 5.17641C8.57658 5.55985 8.48181 5.70364 8.27648 5.99122C8.10273 6.24685 8.00797 6.53443 8.00797 6.83799C8.00797 7.14155 8.10273 7.3812 8.29227 7.55694C8.76611 8.02027 9.58744 8.13211 9.58744 8.13211C9.69801 8.14808 9.79277 8.24394 9.79277 8.35578C9.79277 8.46762 9.7296 8.57946 9.61903 8.59543L9.42949 8.62739C8.38704 8.89899 7.313 9.1706 6.55485 9.88955C5.98624 10.4168 5.71773 11.1517 5.82829 11.7908C5.90726 12.2062 6.17577 12.6056 6.57064 12.8612C6.96551 13.1169 7.42356 13.2127 7.83422 13.1169C8.46601 12.9571 8.93986 12.4618 9.42949 11.9346C9.79277 11.5352 10.1718 11.1357 10.6457 10.8482C11.4828 10.3369 12.5569 10.3049 13.4256 10.7363C13.5361 10.8002 13.5993 10.944 13.5361 11.0559C13.473 11.1677 13.3308 11.2316 13.2202 11.1677C12.4937 10.8162 11.5776 10.8482 10.8826 11.2636C10.4719 11.5192 10.1087 11.9026 9.76118 12.2701C9.23996 12.8293 8.70294 13.4044 7.92899 13.5962C7.80263 13.6281 7.64469 13.6441 7.50253 13.6441Z" fill="white"/>
<path d="M5.44924 21.9999C5.24391 21.9999 5.05437 21.9839 4.88063 21.9679C4.81745 21.9679 4.77007 21.9519 4.70689 21.936C4.58053 21.904 4.51735 21.7762 4.53315 21.6484C4.56474 21.5206 4.6753 21.4407 4.80166 21.4567C4.83325 21.4567 4.86484 21.4726 4.89643 21.4726C4.92802 21.4726 4.9754 21.4567 5.00699 21.4247C5.13335 21.3448 5.24391 21.1691 5.25971 20.9933C5.2755 20.8336 5.2755 20.6738 5.25971 20.4981C5.24391 20.2904 5.24391 20.0667 5.2755 19.843C5.41765 19.1081 6.03365 18.6447 6.4917 18.3572C6.58647 18.2933 6.68123 18.2453 6.76021 18.1814C7.17087 17.9258 7.54995 17.6861 7.81846 17.3347C8.08697 16.9512 8.21333 16.424 8.16594 15.8488C8.11856 15.3056 7.94482 14.7464 7.77107 14.2192C7.72369 14.0914 7.80266 13.9636 7.91323 13.9156C8.03958 13.8677 8.16594 13.9476 8.21333 14.0594C8.40286 14.6186 8.5924 15.1938 8.63979 15.8009C8.70296 16.5039 8.54502 17.1429 8.21333 17.6222C7.89743 18.0536 7.45518 18.3252 7.02872 18.5968C6.93395 18.6447 6.85498 18.7087 6.76021 18.7566C6.16001 19.14 5.84411 19.5235 5.76514 19.9389C5.73355 20.0986 5.74934 20.2904 5.74934 20.4821C5.76514 20.6738 5.76514 20.8655 5.73355 21.0732C5.71775 21.233 5.65457 21.3768 5.5756 21.5206C5.68616 21.5206 5.79673 21.5046 5.90729 21.4726C6.27057 21.3928 6.58647 21.201 6.76021 20.9614C6.83918 20.8495 6.88657 20.7217 6.94975 20.5939C7.04451 20.4022 7.12349 20.1945 7.28144 20.0188C7.62892 19.6353 8.13435 19.5554 8.54502 19.5235C8.82932 19.4915 9.12942 19.4915 9.39793 19.4755C10.2666 19.4436 11.088 19.4276 11.7514 18.9962C12.2094 18.7087 12.5727 18.2453 12.9202 17.5264C13.2992 16.7435 13.7099 15.5612 13.5362 14.2991C13.5204 14.1872 13.3782 13.7399 13.3308 13.66C13.2677 13.5482 13.2992 13.4044 13.4098 13.3245C13.5204 13.2606 13.6625 13.2766 13.7257 13.3884C13.8205 13.5482 13.9784 14.0754 14.01 14.2192C14.168 15.3216 13.9468 16.5358 13.3624 17.7341C12.9675 18.5329 12.5411 19.0601 12.0199 19.3957C11.2459 19.8909 10.314 19.9229 9.42952 19.9548C9.14522 19.9708 8.86091 19.9708 8.5924 20.0028C8.27651 20.0347 7.86584 20.0986 7.64472 20.3543C7.53415 20.4661 7.47097 20.6418 7.392 20.8016C7.32882 20.9454 7.26564 21.1052 7.17087 21.249C6.93395 21.6164 6.52329 21.8561 6.03365 21.9679C5.82832 21.9839 5.63878 21.9999 5.44924 21.9999Z" fill="white"/>
<path d="M13.7415 13.676C13.2835 13.676 12.8412 13.5642 12.4306 13.3565C12.32 13.2926 12.2726 13.1488 12.3358 13.0369C12.399 12.9251 12.5411 12.8772 12.6517 12.9411C13.4414 13.3724 14.4681 13.2766 15.1789 12.7174C15.5263 12.4298 15.7475 12.0624 15.7949 11.7109C15.8264 11.5032 15.7949 11.2795 15.6843 10.9919C15.2262 9.69779 14.01 9.10665 13.0624 8.83505C12.9044 8.78712 12.7149 8.73919 12.5253 8.69126C12.4938 8.69126 12.4464 8.67528 12.3832 8.64332C12.32 8.62735 12.1779 8.57942 12.1147 8.57942C12.0357 8.59539 11.9409 8.57942 11.8936 8.51551C11.8462 8.53149 11.7988 8.54746 11.7514 8.53149C10.7563 8.33977 9.71387 8.57942 9.69808 8.57942C9.6191 8.59539 9.54013 8.57942 9.47695 8.51551C9.24003 8.30781 9.12947 8.05218 9.12947 7.71667C9.11367 7.2853 9.3348 6.99772 9.42957 6.8699C9.44536 6.85393 9.46116 6.83795 9.46116 6.82197C9.52434 6.71014 9.82444 6.32669 9.88761 6.26279C9.96659 6.16693 10.1245 6.13497 10.2193 6.23083C10.3141 6.31072 10.3457 6.47048 10.2509 6.56635C10.1245 6.72611 9.90341 7.0137 9.85603 7.09358C9.84023 7.10956 9.82444 7.14151 9.80864 7.17346C9.72967 7.2853 9.58751 7.46104 9.60331 7.73265C9.60331 7.92437 9.66649 8.03621 9.72967 8.10011C10.0456 8.03621 10.8827 7.90839 11.7514 8.05219C11.7988 8.00425 11.862 7.87644 11.8304 7.66874C11.7672 7.18944 11.3723 6.82197 11.0722 6.55037C10.9143 6.40658 10.7247 6.27876 10.5352 6.15095C10.3299 6.00716 10.1245 5.86337 9.99818 5.73555L9.935 5.67165C9.69808 5.432 9.35059 5.04855 9.35059 4.34558C9.35059 3.57869 10.0298 2.84376 10.6616 2.41239C10.7563 2.34848 10.8669 2.36446 10.9459 2.42836C11.0248 2.49227 11.0564 2.62009 11.009 2.71595C11.009 2.71595 10.8827 2.97157 10.9143 3.2272C10.9459 3.53076 11.009 3.78639 11.246 4.07397C11.5303 4.39351 11.7356 4.55327 12.0989 4.82488C12.4938 5.09648 12.9202 5.55981 13.1413 5.87934C13.3467 6.16693 13.631 6.61428 13.6468 7.17346C13.6626 7.79656 13.2835 8.10012 12.8728 8.29184C12.9834 8.32379 13.094 8.35574 13.1887 8.37172C14.705 8.80309 15.7159 9.66584 16.1265 10.8321C16.2055 11.0558 16.3003 11.3913 16.2529 11.7748C16.1897 12.27 15.9054 12.7334 15.4632 13.1008C14.9893 13.4683 14.3733 13.676 13.7415 13.676ZM10.4404 3.19525C10.0929 3.53076 9.82444 3.93018 9.82444 4.3296C9.82444 4.84086 10.0772 5.11246 10.2825 5.32016L10.3457 5.38407C10.4404 5.47993 10.6142 5.60774 10.8037 5.73555C10.9932 5.86337 11.2144 6.02314 11.3881 6.1829C11.7198 6.48646 12.2094 6.93381 12.2884 7.5569C12.3042 7.71667 12.3042 7.86046 12.2726 7.9723C12.8412 7.7646 13.1887 7.60484 13.1887 7.14151C13.1729 6.72611 12.9518 6.35865 12.7781 6.119C12.5727 5.84739 12.1779 5.41602 11.8304 5.17637C11.4197 4.87281 11.1986 4.69706 10.8985 4.34558C10.5668 3.96213 10.4878 3.57869 10.4404 3.24318C10.4404 3.24318 10.4404 3.21123 10.4404 3.19525Z" fill="white"/>
</svg>
