<svg width="23" height="24" viewBox="0 0 23 24" fill="none" xmlns="http://www.w3.org/2000/svg">
<path d="M13.9422 23.0061H7.87015C2.37491 23.0061 0.0270309 20.6582 0.0270309 15.163V9.09092C0.0270309 3.59568 2.37491 1.2478 7.87015 1.2478H9.89418C10.3091 1.2478 10.6532 1.59189 10.6532 2.00681C10.6532 2.42174 10.3091 2.76583 9.89418 2.76583H7.87015C3.20476 2.76583 1.54505 4.42553 1.54505 9.09092V15.163C1.54505 19.8284 3.20476 21.4881 7.87015 21.4881H13.9422C18.6076 21.4881 20.2673 19.8284 20.2673 15.163V13.139C20.2673 12.7241 20.6114 12.38 21.0263 12.38C21.4413 12.38 21.7854 12.7241 21.7854 13.139V15.163C21.7854 20.6582 19.4375 23.0061 13.9422 23.0061Z" fill="#090A0A"/>
<path d="M7.36336 17.8855C6.74603 17.8855 6.1793 17.6629 5.76437 17.2581C5.26849 16.7622 5.05596 16.0437 5.16728 15.2847L5.60245 12.2385C5.68341 11.6515 6.06798 10.8925 6.4829 10.4776L14.4575 2.50286C16.4714 0.488954 18.5157 0.488954 20.5296 2.50286C21.6327 3.60596 22.1286 4.7293 22.0274 5.85263C21.9363 6.76345 21.4506 7.65402 20.5296 8.56483L12.5549 16.5396C12.14 16.9545 11.381 17.339 10.794 17.42L7.74792 17.8552C7.61636 17.8855 7.4848 17.8855 7.36336 17.8855ZM15.5303 3.5756L7.55564 11.5503C7.36336 11.7426 7.14071 12.1879 7.10023 12.451L6.66507 15.4972C6.62458 15.7907 6.68531 16.0335 6.83711 16.1853C6.98891 16.3371 7.23179 16.3979 7.52528 16.3574L10.5714 15.9222C10.8345 15.8817 11.2899 15.6591 11.4721 15.4668L19.4468 7.4921C20.1046 6.83429 20.4487 6.24732 20.4993 5.70083C20.56 5.04302 20.2159 4.34473 19.4468 3.56548C17.8275 1.94626 16.7143 2.40166 15.5303 3.5756Z" fill="#090A0A"/>
<path d="M18.8502 9.93069C18.7794 9.93069 18.7086 9.92057 18.6478 9.90033C15.9862 9.15143 13.8711 7.03632 13.1222 4.37472C13.0109 3.96992 13.2437 3.55499 13.6485 3.43355C14.0533 3.32223 14.4682 3.55499 14.5795 3.9598C15.1868 6.11539 16.8971 7.8257 19.0526 8.4329C19.4575 8.54423 19.6902 8.96927 19.5789 9.37408C19.4878 9.71816 19.1842 9.93069 18.8502 9.93069Z" fill="#090A0A"/>
</svg>
