<svg width="28" height="28" viewBox="0 0 28 28" fill="none" xmlns="http://www.w3.org/2000/svg">
<path d="M4.14922 27.4318C3.21534 27.4318 2.30307 27.0963 1.60601 26.4336C0.934641 25.7952 0.568312 24.9529 0.568312 24.0549C0.568312 23.1569 0.934641 22.3146 1.60601 21.6762L20.4004 3.80581C21.8003 2.47482 24.087 2.47482 25.4869 3.80581C26.1582 4.44418 26.5246 5.28648 26.5246 6.18448C26.5246 7.08249 26.1582 7.92479 25.4869 8.56316L6.69243 26.4336C5.99537 27.0963 5.0831 27.4318 4.14922 27.4318ZM22.9436 3.73291C22.3047 3.73291 21.6546 3.95913 21.1497 4.43923L2.35526 22.3096C1.86881 22.7722 1.60027 23.3875 1.60027 24.0549C1.60027 24.7223 1.86881 25.3376 2.35526 25.8001C3.34089 26.7373 4.95754 26.7373 5.94317 25.8001L24.7376 7.92974C25.2241 7.46721 25.4926 6.85189 25.4926 6.18448C25.4926 5.51707 25.2241 4.90176 24.7376 4.43923C24.2327 3.95913 23.5826 3.73291 22.9436 3.73291Z" fill="white" stroke="url(#paint0_linear_17839_12953)" stroke-width="1.13662"/>
<path d="M22.9557 10.7577C22.8148 10.7577 22.6839 10.7096 22.5811 10.6117L18.2439 6.48781C18.0602 6.31319 18.0602 6.02902 18.2439 5.85439C18.4438 5.66436 18.7933 5.66436 18.9931 5.85439L23.3303 9.97833C23.514 10.1529 23.514 10.4371 23.3303 10.6117C23.2274 10.7096 23.0965 10.7577 22.9557 10.7577Z" fill="white" stroke="url(#paint1_linear_17839_12953)" stroke-width="1.13662"/>
<path d="M9.35988 4.37264L9.20682 4.32984L9.05376 4.37264L7.09268 4.92107C7.01134 4.94153 6.95566 4.91138 6.94 4.89525L6.93208 4.88709L6.92384 4.87925C6.89911 4.85574 6.89067 4.83651 6.88757 4.82557C6.88481 4.81579 6.88305 4.80162 6.88904 4.7796L7.46551 2.91596L7.51746 2.74802L7.46551 2.58007L6.88905 0.716488C6.87715 0.672523 6.89323 0.644239 6.90712 0.632052L6.91563 0.624582L6.92384 0.616779C6.96852 0.574288 7.0369 0.559362 7.08757 0.573534L9.05376 1.12339L9.20682 1.1662L9.35988 1.12339L11.3209 0.574962C11.39 0.557586 11.446 0.57508 11.4898 0.616779C11.5319 0.656762 11.5307 0.696821 11.5265 0.710559L10.9482 2.58007L10.8962 2.74802L10.9482 2.91596L11.5246 4.77954C11.5365 4.82351 11.5204 4.85179 11.5066 4.86398L11.4868 4.88133L11.4687 4.90043C11.4655 4.90385 11.4574 4.91083 11.4408 4.91739C11.4237 4.92416 11.4011 4.92899 11.3754 4.92899L11.3754 4.92899L11.3744 4.92891C11.373 4.9288 11.3697 4.92845 11.3631 4.9274C11.3561 4.92629 11.347 4.92465 11.3325 4.92186L11.3087 4.91721L11.3038 4.91627L9.35988 4.37264ZM8.25929 4.34057L9.13426 4.09903L9.14008 4.09791L9.16393 4.09326C9.17838 4.09047 9.1875 4.08883 9.19457 4.08772C9.20117 4.08667 9.20446 4.08632 9.20577 4.08621L9.20679 4.08613L9.20681 4.08613H9.20682H9.20682L9.20684 4.08613L9.20787 4.08621C9.20918 4.08633 9.21248 4.08667 9.21908 4.08772C9.22615 4.08884 9.23527 4.09047 9.24973 4.09326L9.27357 4.09791L9.27939 4.09903L10.1544 4.34057L11.1511 4.61572L10.8491 3.62678L10.5889 2.7745L10.5855 2.7634L10.5816 2.75246C10.5816 2.75246 10.5815 2.75204 10.5814 2.75122L10.5811 2.74802L10.5814 2.74481C10.5815 2.74394 10.5817 2.74353 10.5816 2.74358L10.5855 2.73263L10.5889 2.72153L10.8491 1.86926L11.1511 0.880316L10.1544 1.15546L9.258 1.4029L9.24771 1.40574L9.23752 1.40897C9.21914 1.4148 9.1945 1.4148 9.17612 1.40897L9.16594 1.40574L9.15564 1.4029L8.25929 1.15546L7.26258 0.880321L7.56453 1.86925L7.82476 2.72153L7.82815 2.73263L7.83198 2.74358C7.83198 2.74358 7.83199 2.74358 7.83199 2.74358C7.832 2.74363 7.83213 2.74404 7.83226 2.74481L7.83251 2.74802L7.83226 2.75122C7.83224 2.75137 7.83221 2.75151 7.83219 2.75163C7.83207 2.75222 7.83197 2.7525 7.83199 2.75245L7.82815 2.7634L7.82476 2.7745L7.56453 3.62678L7.26258 4.61571L8.25929 4.34057Z" fill="white" stroke="url(#paint2_linear_17839_12953)" stroke-width="1.13662"/>
<path d="M3.57753 12.6208L3.42447 12.578L3.27141 12.6208L1.31032 13.1692C1.24132 13.1866 1.18536 13.1691 1.14149 13.1274C1.09944 13.0874 1.10062 13.0473 1.10487 13.0336L1.10487 13.0336L1.68316 11.164L1.73511 10.9961L1.68316 10.8281L1.1067 8.96453C1.09481 8.92057 1.11089 8.89229 1.12477 8.8801C1.19233 8.8208 1.2732 8.81262 1.30523 8.82158L3.27141 9.37144L3.42447 9.41424L3.57753 9.37144L5.54372 8.82158L5.39066 8.27427L5.54372 8.82158C5.59439 8.80741 5.66275 8.82233 5.70744 8.86483C5.74952 8.90483 5.74831 8.94488 5.74407 8.95857L5.74406 8.9586L5.16577 10.8281L5.11383 10.9961L5.16577 11.164L5.74223 13.0277C5.75413 13.0716 5.73807 13.0999 5.72416 13.1121L5.70439 13.1294L5.68631 13.1486C5.68307 13.152 5.67498 13.159 5.65841 13.1655C5.64134 13.1723 5.6187 13.1771 5.59305 13.1771L5.59304 13.1771L5.59303 13.1771L5.59201 13.177C5.5907 13.1769 5.58742 13.1766 5.58082 13.1755C5.57376 13.1744 5.56464 13.1728 5.55018 13.17L5.52634 13.1653L5.52144 13.1644L3.57753 12.6208ZM2.47695 12.5887L3.35191 12.3471L3.35773 12.346L3.38158 12.3414C3.39604 12.3386 3.40516 12.3369 3.41222 12.3358C3.41882 12.3348 3.42211 12.3344 3.42342 12.3343L3.42444 12.3342L3.42446 12.3342H3.42447H3.42447L3.42449 12.3342L3.42551 12.3343C3.42682 12.3344 3.43011 12.3348 3.43671 12.3358C3.44378 12.3369 3.4529 12.3386 3.46735 12.3414L3.4912 12.346L3.49702 12.3471L4.37201 12.5887L5.36871 12.8638L5.06677 11.8749L4.80653 11.0226L4.80314 11.0115L4.7993 11.0005C4.79931 11.0006 4.79917 11.0001 4.79902 10.9993L4.79877 10.9961L4.79902 10.9929C4.79917 10.992 4.79931 10.9916 4.7993 10.9916L4.80313 10.9807L4.80652 10.9696L5.06677 10.1173L5.36874 9.12837L4.37201 9.40351L3.47564 9.65095L3.46535 9.65379L3.45516 9.65702C3.43678 9.66284 3.41215 9.66284 3.39377 9.65702L3.38359 9.65379L3.37329 9.65095L2.47694 9.40351L1.48023 9.12837L1.78218 10.1173L2.04241 10.9696L2.0458 10.9807L2.04964 10.9916C2.04964 10.9916 2.04978 10.992 2.04991 10.9929L2.05017 10.9961L2.04991 10.9993C2.04978 11.0001 2.04964 11.0005 2.04964 11.0005L2.0458 11.0115L2.04241 11.0226L1.78218 11.8749L1.48025 12.8638L2.47695 12.5887Z" fill="white" stroke="url(#paint3_linear_17839_12953)" stroke-width="1.13662"/>
<path d="M25.263 19.4937L25.1099 19.4509L24.9568 19.4937L22.9957 20.0422C22.9267 20.0595 22.8708 20.0421 22.8269 20.0003C22.7849 19.9604 22.786 19.9203 22.7903 19.9066L23.3686 18.0371L23.4205 17.8691L23.3686 17.7012L22.7921 15.8376C22.7802 15.7936 22.7963 15.7653 22.8102 15.7531C22.8778 15.6938 22.9586 15.6857 22.9906 15.6946L24.9568 16.2445L25.1099 16.2873L25.263 16.2445L27.2291 15.6946C27.2798 15.6805 27.3482 15.6954 27.3929 15.7379C27.4349 15.7779 27.4337 15.8179 27.4295 15.8317L26.8512 17.7012L26.7993 17.8691L26.8512 18.0371L27.4277 19.9006C27.4396 19.9446 27.4235 19.9729 27.4096 19.9851L27.3898 20.0024L27.3717 20.0215C27.3685 20.0249 27.3604 20.0319 27.3438 20.0385C27.3268 20.0453 27.3041 20.0501 27.2785 20.0501H27.2785L27.2784 20.0501L27.2774 20.05C27.2761 20.0499 27.2728 20.0495 27.2662 20.0485C27.2592 20.0474 27.25 20.0457 27.2356 20.043L27.2117 20.0383L27.2069 20.0374L25.263 19.4937ZM24.1624 19.4617L25.0373 19.2201L25.0432 19.219L25.067 19.2143C25.0815 19.2116 25.0906 19.2099 25.0976 19.2088C25.1042 19.2078 25.1075 19.2074 25.1088 19.2073L25.1099 19.2072L25.1099 19.2072H25.1099H25.1099L25.1099 19.2072L25.1109 19.2073C25.1122 19.2074 25.1155 19.2078 25.1221 19.2088C25.1292 19.2099 25.1383 19.2116 25.1528 19.2143L25.1766 19.219L25.1824 19.2201L26.0574 19.4617L27.0541 19.7368L26.7522 18.7479L26.4919 17.8956L26.4886 17.8845L26.4847 17.8735C26.4847 17.8736 26.4846 17.8732 26.4844 17.8723L26.4842 17.8691L26.4844 17.8659C26.4846 17.865 26.4847 17.8646 26.4847 17.8647L26.4886 17.8537L26.4919 17.8426L26.7522 16.9903L27.0541 16.0014L26.0574 16.2766L25.1611 16.524L25.1508 16.5268L25.1406 16.5301C25.1222 16.5359 25.0976 16.5359 25.0792 16.5301L25.069 16.5268L25.0587 16.524L24.1624 16.2766L23.1656 16.0014L23.4676 16.9903L23.7278 17.8426L23.7312 17.8537L23.7351 17.8647C23.7351 17.8647 23.7352 17.8651 23.7353 17.8659L23.7356 17.8691L23.7353 17.8723C23.7352 17.8731 23.7351 17.8735 23.7351 17.8736L23.7312 17.8845L23.7278 17.8956L23.4676 18.7479L23.1657 19.7368L24.1624 19.4617Z" fill="white" stroke="url(#paint4_linear_17839_12953)" stroke-width="1.13662"/>
<defs>
<linearGradient id="paint0_linear_17839_12953" x1="-1.00929e-07" y1="15.1197" x2="27.0929" y2="15.1197" gradientUnits="userSpaceOnUse">
<stop stop-color="#139DBC"/>
<stop offset="1" stop-color="#36C8BD"/>
</linearGradient>
<linearGradient id="paint1_linear_17839_12953" x1="17.5378" y1="8.23479" x2="24.0364" y2="8.23479" gradientUnits="userSpaceOnUse">
<stop stop-color="#139DBC"/>
<stop offset="1" stop-color="#36C8BD"/>
</linearGradient>
<linearGradient id="paint2_linear_17839_12953" x1="6.31671" y1="2.74865" x2="12.097" y2="2.74865" gradientUnits="userSpaceOnUse">
<stop stop-color="#139DBC"/>
<stop offset="1" stop-color="#36C8BD"/>
</linearGradient>
<linearGradient id="paint3_linear_17839_12953" x1="0.534363" y1="10.9967" x2="6.31458" y2="10.9967" gradientUnits="userSpaceOnUse">
<stop stop-color="#139DBC"/>
<stop offset="1" stop-color="#36C8BD"/>
</linearGradient>
<linearGradient id="paint4_linear_17839_12953" x1="22.2198" y1="17.8697" x2="28" y2="17.8697" gradientUnits="userSpaceOnUse">
<stop stop-color="#139DBC"/>
<stop offset="1" stop-color="#36C8BD"/>
</linearGradient>
</defs>
</svg>
