<svg width="20" height="20" viewBox="0 0 20 20" fill="none" xmlns="http://www.w3.org/2000/svg">
<path d="M8.18842 20C7.94604 20 7.71409 19.9033 7.55605 19.71L6.49166 18.405C6.27036 18.1344 5.97531 17.9797 5.65916 17.9604C5.33247 17.941 5.02682 18.0764 4.7739 18.318C3.24583 19.8163 2.08662 19.6907 1.52808 19.4973C0.959006 19.2943 0 18.6274 0 16.4814V5.59692C0 1.30499 1.34892 0 5.76451 0H13.7211C18.1367 0 19.4856 1.30499 19.4856 5.59692V9.71484C19.4856 10.1112 19.1273 10.4398 18.6952 10.4398C18.2631 10.4398 17.9048 10.1112 17.9048 9.71484V5.59692C17.9048 2.10731 17.2409 1.44998 13.7211 1.44998H5.76451C2.24468 1.44998 1.58076 2.10731 1.58076 5.59692V16.4814C1.58076 17.4964 1.85476 18.057 2.10768 18.144C2.29737 18.2117 2.81378 18.115 3.6147 17.332C4.19431 16.7714 4.95306 16.4717 5.74345 16.5104C6.52329 16.5491 7.26099 16.9261 7.75624 17.535L8.83116 18.84C9.09462 19.159 9.02085 19.6133 8.67308 19.855C8.51501 19.9613 8.3465 20 8.18842 20Z" fill="white"/>
<path d="M13.9428 6.28298H5.51206C5.07999 6.28298 4.72168 5.95432 4.72168 5.558C4.72168 5.16167 5.07999 4.83301 5.51206 4.83301H13.9428C14.3749 4.83301 14.7332 5.16167 14.7332 5.558C14.7332 5.95432 14.3749 6.28298 13.9428 6.28298Z" fill="white"/>
<path d="M12.8893 10.1499H6.56626C6.13418 10.1499 5.77588 9.82127 5.77588 9.42494C5.77588 9.02861 6.13418 8.69995 6.56626 8.69995H12.8893C13.3214 8.69995 13.6797 9.02861 13.6797 9.42494C13.6797 9.82127 13.3214 10.1499 12.8893 10.1499Z" fill="white"/>
<path d="M12.6985 19.8456C12.2981 19.8456 11.9187 19.7103 11.6447 19.459C11.318 19.1593 11.1705 18.7243 11.2442 18.27L11.4445 16.965C11.4971 16.6267 11.7185 16.2207 11.9819 15.979L15.7125 12.5571C16.2184 12.0931 16.7137 11.8514 17.2511 11.8031C17.9045 11.7451 18.5579 11.9964 19.1691 12.5571C19.7803 13.1177 20.0543 13.7074 19.9911 14.3164C19.9384 14.7997 19.6644 15.2637 19.1691 15.7277L15.4385 19.1496C15.1751 19.3913 14.7324 19.5943 14.3636 19.6426L12.9408 19.8263C12.8565 19.8359 12.7828 19.8456 12.6985 19.8456ZM17.4303 13.2434C17.4197 13.2434 17.4092 13.2434 17.3987 13.2434C17.2511 13.2531 17.0509 13.3787 16.8296 13.5817L13.099 17.0037C13.0674 17.0327 13.0147 17.1293 13.0147 17.168L12.825 18.3763L14.1423 18.2023C14.1844 18.1926 14.2897 18.1443 14.3213 18.1153L18.052 14.6934C18.2733 14.4807 18.4103 14.3067 18.4209 14.1714C18.442 13.978 18.2312 13.746 18.052 13.5817C17.8834 13.4271 17.641 13.2434 17.4303 13.2434Z" fill="white"/>
<path d="M18.0745 16.433C18.0007 16.433 17.927 16.4233 17.8637 16.404C16.4727 16.0463 15.3661 15.0313 14.9762 13.7554C14.8603 13.3687 15.1027 12.9724 15.5242 12.8564C15.9457 12.75 16.3778 12.9724 16.4937 13.359C16.7361 14.1517 17.4211 14.78 18.2853 15.0023C18.7068 15.1087 18.9492 15.5147 18.8333 15.9013C18.7384 16.2203 18.4223 16.433 18.0745 16.433Z" fill="white"/>
</svg>
