<svg width="28" height="28" viewBox="0 0 28 28" fill="none" xmlns="http://www.w3.org/2000/svg">
<path d="M11.4638 28C11.1245 28 10.7997 27.8647 10.5785 27.594L9.08833 25.767C8.7785 25.3881 8.36544 25.1716 7.92282 25.1445C7.46546 25.1174 7.03755 25.3069 6.68346 25.6452C4.54416 27.7429 2.92126 27.5669 2.13931 27.2963C1.34261 27.0121 0 26.0783 0 23.0739V7.83568C0 1.82698 1.88848 0 8.07032 0H19.2095C25.3914 0 27.2798 1.82698 27.2798 7.83568V13.6008C27.2798 14.1556 26.7782 14.6158 26.1733 14.6158C25.5684 14.6158 25.0668 14.1556 25.0668 13.6008V7.83568C25.0668 2.95023 24.1373 2.02997 19.2095 2.02997H8.07032C3.14255 2.02997 2.21307 2.95023 2.21307 7.83568V23.0739C2.21307 24.4949 2.59666 25.2798 2.95076 25.4016C3.21632 25.4964 3.93929 25.361 5.06058 24.2649C5.87203 23.4799 6.93429 23.0604 8.04082 23.1145C9.1326 23.1687 10.1654 23.6965 10.8587 24.5491L12.3636 26.376C12.7325 26.8226 12.6292 27.4587 12.1423 27.797C11.921 27.9459 11.6851 28 11.4638 28Z" fill="url(#paint0_linear_17839_12941)"/>
<path d="M19.5198 8.79608H7.71682C7.11192 8.79608 6.61029 8.33595 6.61029 7.7811C6.61029 7.22624 7.11192 6.76611 7.71682 6.76611H19.5198C20.1248 6.76611 20.6264 7.22624 20.6264 7.7811C20.6264 8.33595 20.1248 8.79608 19.5198 8.79608Z" fill="url(#paint1_linear_17839_12941)"/>
<path d="M18.0449 14.2097H9.19265C8.58775 14.2097 8.08612 13.7495 8.08612 13.1947C8.08612 12.6398 8.58775 12.1797 9.19265 12.1797H18.0449C18.6498 12.1797 19.1515 12.6398 19.1515 13.1947C19.1515 13.7495 18.6498 14.2097 18.0449 14.2097Z" fill="url(#paint2_linear_17839_12941)"/>
<path d="M17.7779 27.7837C17.2172 27.7837 16.6861 27.5942 16.3025 27.2423C15.8451 26.8228 15.6386 26.2138 15.7419 25.5778L16.0222 23.7508C16.0959 23.2771 16.4058 22.7087 16.7746 22.3704L21.9975 17.5797C22.7056 16.9301 23.3991 16.5918 24.1515 16.5241C25.0662 16.4429 25.981 16.7948 26.8367 17.5797C27.6924 18.3646 28.076 19.1901 27.9875 20.0427C27.9137 20.7194 27.5301 21.369 26.8367 22.0186L21.6139 26.8093C21.245 27.1476 20.6254 27.4318 20.109 27.4995L18.1171 27.7566C17.999 27.7701 17.8959 27.7837 17.7779 27.7837ZM24.4023 18.5405C24.3876 18.5405 24.3728 18.5405 24.3581 18.5405C24.1515 18.5541 23.8712 18.73 23.5614 19.0142L18.3385 23.8049C18.2943 23.8455 18.2205 23.9809 18.2205 24.035L17.9549 25.7266L19.7991 25.483C19.8582 25.4695 20.0056 25.4018 20.0498 25.3612L25.2728 20.5705C25.5826 20.2728 25.7744 20.0292 25.7892 19.8397C25.8187 19.5691 25.5236 19.2443 25.2728 19.0142C25.0367 18.7977 24.6974 18.5405 24.4023 18.5405Z" fill="url(#paint3_linear_17839_12941)"/>
<path d="M25.3042 23.0063C25.2009 23.0063 25.0977 22.9928 25.0091 22.9657C23.0616 22.465 21.5125 21.044 20.9666 19.2577C20.8043 18.7163 21.1436 18.1615 21.7338 17.9991C22.3239 17.8502 22.9289 18.1615 23.0911 18.7028C23.4305 19.8125 24.3895 20.6922 25.5993 21.0034C26.1894 21.1523 26.5288 21.7207 26.3665 22.262C26.2337 22.7086 25.7911 23.0063 25.3042 23.0063Z" fill="url(#paint4_linear_17839_12941)"/>
<defs>
<linearGradient id="paint0_linear_17839_12941" x1="-1.01625e-07" y1="14" x2="27.2798" y2="14" gradientUnits="userSpaceOnUse">
<stop stop-color="#139DBC"/>
<stop offset="1" stop-color="#36C8BD"/>
</linearGradient>
<linearGradient id="paint1_linear_17839_12941" x1="6.61029" y1="7.7811" x2="20.6264" y2="7.7811" gradientUnits="userSpaceOnUse">
<stop stop-color="#139DBC"/>
<stop offset="1" stop-color="#36C8BD"/>
</linearGradient>
<linearGradient id="paint2_linear_17839_12941" x1="8.08612" y1="13.1947" x2="19.1515" y2="13.1947" gradientUnits="userSpaceOnUse">
<stop stop-color="#139DBC"/>
<stop offset="1" stop-color="#36C8BD"/>
</linearGradient>
<linearGradient id="paint3_linear_17839_12941" x1="15.7158" y1="22.1482" x2="27.9999" y2="22.1482" gradientUnits="userSpaceOnUse">
<stop stop-color="#139DBC"/>
<stop offset="1" stop-color="#36C8BD"/>
</linearGradient>
<linearGradient id="paint4_linear_17839_12941" x1="20.9261" y1="20.4841" x2="26.407" y2="20.4841" gradientUnits="userSpaceOnUse">
<stop stop-color="#139DBC"/>
<stop offset="1" stop-color="#36C8BD"/>
</linearGradient>
</defs>
</svg>
