<svg width="20" height="22" viewBox="0 0 20 21" fill="none" xmlns="http://www.w3.org/2000/svg">
<path d="M11.2153 21H11.1359C11.0564 21 10.9929 20.9676 10.9452 20.9028C10.8658 20.7895 10.7864 20.6762 10.7228 20.5467C10.5799 20.3039 10.4369 20.0772 10.2463 19.9315C9.75381 19.5268 9.07073 19.4135 8.41941 19.6239C7.81576 19.8182 7.35507 20.2715 7.2121 20.8219C7.18033 20.919 7.08501 21 6.9897 21H6.91027C6.8785 21 6.84673 21 6.81496 20.9838L6.17953 20.7248C5.6553 20.4981 5.11519 20.2877 4.59096 20.061C4.24148 19.9153 4.11439 19.6725 4.22559 19.2678C4.41622 18.5069 4.20971 17.7461 3.70136 17.2443C3.17714 16.7262 2.43051 16.5482 1.68388 16.7424C1.35028 16.8395 1.112 16.7262 0.984912 16.4025C0.889598 16.1758 0.794284 15.9492 0.714856 15.7387C0.540113 15.3178 0.365371 14.8969 0.190628 14.476C-0.0317714 13.958 0.254171 13.7152 0.508342 13.5533C1.20731 13.1324 1.54091 12.4849 1.47737 11.6755C1.38205 10.7689 0.937255 10.1861 0.158857 9.87855C0.0635427 9.84617 0 9.74904 0 9.65191V9.57097C0 9.53859 0 9.50621 0.0158857 9.47384L0.270057 8.84249C0.508342 8.30827 0.730741 7.74168 0.953141 7.19128C1.09611 6.85132 1.31851 6.75419 1.68388 6.85132C2.43051 7.04558 3.17714 6.85132 3.70136 6.33329C4.22559 5.79908 4.41622 5.02203 4.20971 4.26118C4.11439 3.90504 4.22559 3.6784 4.52742 3.54889C4.78159 3.43557 5.01988 3.33844 5.27405 3.24131C5.68708 3.06324 6.1001 2.90136 6.49724 2.72329C6.94204 2.52902 7.16444 2.78804 7.29153 3.01468C7.72044 3.75934 8.37176 4.11549 9.18192 4.06692C10.0398 4.00217 10.6116 3.54889 10.9135 2.72329C10.9452 2.62615 11.0406 2.5614 11.1359 2.5614H11.2153C11.3424 2.5614 11.4536 2.67472 11.4536 2.80423C11.4536 2.90136 11.39 2.99849 11.3106 3.03086C10.9293 3.9536 10.2145 4.47163 9.22958 4.53638C8.22878 4.61733 7.40273 4.14786 6.89439 3.24131C6.83084 3.14418 6.81496 3.12799 6.81496 3.12799C6.81496 3.12799 6.78319 3.12799 6.70376 3.16037C6.29073 3.33844 5.8777 3.51652 5.48056 3.6784C5.22639 3.77553 4.9881 3.88885 4.73393 3.98598C4.68628 4.00217 4.67039 4.01836 4.67039 4.01836C4.67039 4.01836 4.67039 4.05073 4.68628 4.11549C4.94045 5.03822 4.70216 5.99334 4.05085 6.65706C3.41542 7.30459 2.47817 7.54742 1.57268 7.30459C1.49325 7.28841 1.4456 7.28841 1.4456 7.28841C1.4456 7.28841 1.42971 7.30459 1.39794 7.36935C1.17554 7.93594 0.937255 8.48635 0.714856 9.03675L0.524228 9.50621C1.36617 9.89474 1.84274 10.607 1.92217 11.6107C2.0016 12.5982 1.57268 13.4238 0.730741 13.9418C0.524228 14.0713 0.524228 14.1037 0.603656 14.2656C0.778399 14.6865 0.953141 15.1236 1.12788 15.5445C1.2232 15.7711 1.30263 15.9978 1.39794 16.2082C1.41383 16.2568 1.42971 16.273 1.42971 16.2891C1.42971 16.2891 1.46148 16.2891 1.52503 16.273C2.43051 16.0139 3.36777 16.2568 4.00319 16.8881C4.63862 17.5195 4.89279 18.4584 4.67039 19.3811C4.62273 19.5592 4.63862 19.5592 4.76571 19.6078C5.28993 19.8344 5.83005 20.0448 6.35427 20.2715L6.83084 20.4657C7.06913 19.8668 7.59336 19.3973 8.27644 19.1707C9.08661 18.9117 9.92855 19.0574 10.5481 19.5592C10.7864 19.7535 10.9611 20.0287 11.12 20.2877C11.1676 20.3524 11.1994 20.4172 11.2471 20.4819L11.7395 20.2715C12.2955 20.0448 12.8356 19.802 13.3916 19.5754C13.4552 19.543 13.4711 19.5268 13.4711 19.5268C13.4711 19.5268 13.4711 19.4944 13.4552 19.4135C13.1851 18.4746 13.4393 17.5033 14.1383 16.8395C14.8213 16.1758 15.7745 15.9492 16.6164 16.2568C16.6323 16.2568 16.6641 16.2406 16.68 16.2406C16.9818 15.5445 17.2836 14.8322 17.5537 14.1361C17.5537 14.1199 17.5378 14.0713 17.5219 14.0551C17.4266 13.9904 17.3789 13.8609 17.4425 13.7476C17.506 13.6342 17.649 13.5695 17.7602 13.6342C17.9508 13.7314 18.0938 14.0713 18.0144 14.2818C17.7284 15.0103 17.4266 15.7549 17.1089 16.4834C17.0136 16.6939 16.68 16.791 16.4893 16.7262C15.8063 16.4834 15.0437 16.6615 14.4877 17.2119C13.9159 17.7623 13.7093 18.5393 13.9317 19.3002C14.0271 19.6725 13.9159 19.9153 13.5981 20.0448C13.0421 20.2715 12.502 20.4981 11.946 20.7409L11.3265 21C11.2788 21 11.2471 21 11.2153 21ZM9.08661 15.7226C8.05404 15.7226 7.08502 15.3017 6.33839 14.557C5.59176 13.7961 5.17873 12.7925 5.17873 11.724C5.17873 9.5224 6.92616 7.74168 9.08661 7.74168C9.2137 7.74168 9.3249 7.855 9.3249 7.98451C9.3249 8.11401 9.2137 8.22733 9.08661 8.22733C7.19622 8.22733 5.6553 9.7976 5.6553 11.724C5.6553 12.6629 6.02067 13.5371 6.67199 14.2008C7.3233 14.8646 8.18113 15.2369 9.08661 15.2369C9.2137 15.2369 9.3249 15.3502 9.3249 15.4797C9.3249 15.6092 9.2137 15.7226 9.08661 15.7226Z" fill="white"/>
<path d="M12.0254 9.31192C11.6759 9.31192 11.3106 9.19861 10.977 9.00435C10.5163 8.71295 10.1827 8.25968 10.0874 7.75784C9.94441 7.02936 10.2304 6.20376 10.8181 5.60479C11.4059 5.02201 12.1684 4.69824 12.9309 4.45541C12.7244 4.37447 12.5179 4.24496 12.3431 4.08308C12.089 3.84025 11.946 3.51649 11.9301 3.12797C11.9142 2.77182 12.0254 2.39949 12.2319 2.09191C12.4067 1.8329 12.502 1.67101 12.8197 1.29868C12.8991 1.20155 13.058 1.18536 13.1533 1.2663C13.2486 1.34724 13.2645 1.50913 13.1851 1.60626C12.8833 1.9624 12.8038 2.09191 12.6291 2.35092C12.4861 2.57756 12.4067 2.83658 12.4067 3.09559C12.4226 3.3546 12.502 3.56505 12.6609 3.71075C13.1057 4.11546 13.8205 4.1964 13.8205 4.1964C13.9317 4.21259 14.027 4.29353 14.027 4.42304C14.0429 4.53635 13.9635 4.64967 13.8523 4.68205L13.6617 4.73062C12.7403 4.98963 11.7871 5.26483 11.1358 5.92855C10.6593 6.41421 10.421 7.07793 10.5322 7.64452C10.6116 8.01686 10.8499 8.35681 11.1994 8.58345C11.5489 8.81009 11.9619 8.87484 12.3273 8.77771C12.8833 8.61583 13.2963 8.16255 13.7252 7.6769C14.0429 7.30457 14.3765 6.93223 14.7895 6.67322C15.5362 6.18757 16.5052 6.12282 17.2995 6.49515C17.4266 6.54371 17.4742 6.68941 17.4107 6.81892C17.363 6.94842 17.2201 6.99699 17.093 6.93223C16.4417 6.62465 15.6315 6.68941 15.0278 7.07793C14.6625 7.30457 14.3765 7.64452 14.0588 8.00067C13.5981 8.51869 13.1374 9.05291 12.4385 9.24717C12.3273 9.29574 12.1684 9.31192 12.0254 9.31192Z" fill="white"/>
<path d="M10.3574 16.8719C10.2145 16.8719 10.0715 16.8557 9.92853 16.8557C9.88087 16.8557 9.81733 16.8557 9.76967 16.8395C9.64259 16.8071 9.57904 16.6776 9.59493 16.5643C9.61081 16.4348 9.7379 16.3539 9.8491 16.3701C9.88087 16.3701 9.91264 16.3701 9.92853 16.3863C9.9603 16.3863 9.97618 16.3701 10.0238 16.3539C10.135 16.2729 10.2145 16.1272 10.2304 15.9815C10.2462 15.8358 10.2304 15.6901 10.2304 15.5445C10.2145 15.3502 10.1986 15.1559 10.2304 14.9455C10.3098 14.4436 10.6593 13.9904 11.2947 13.5533C11.3741 13.5047 11.4536 13.44 11.533 13.3914C11.8984 13.1486 12.232 12.9381 12.4544 12.6144C12.6768 12.2744 12.7721 11.8049 12.7244 11.2869C12.6768 10.8013 12.502 10.3156 12.3273 9.84615C12.2796 9.71664 12.3432 9.58713 12.4702 9.53857C12.5973 9.49 12.7244 9.55476 12.7721 9.68426C12.9468 10.1861 13.1374 10.6879 13.1851 11.2383C13.2486 11.8697 13.1374 12.4687 12.8356 12.9057C12.5656 13.3105 12.1684 13.5695 11.7872 13.8285C11.7077 13.8771 11.6283 13.9256 11.5489 13.9904C11.0246 14.3465 10.7546 14.6865 10.691 15.0588C10.6752 15.2045 10.6752 15.3664 10.691 15.5445C10.7069 15.7225 10.7228 15.9006 10.691 16.0787C10.6752 16.2082 10.6275 16.3377 10.5798 16.451C10.6593 16.4348 10.7387 16.4348 10.8181 16.4186C11.1358 16.3377 11.4059 16.1758 11.5489 15.9492C11.6124 15.852 11.6601 15.7387 11.7077 15.6254C11.7872 15.4473 11.8507 15.2531 11.9937 15.0912C12.2955 14.735 12.7562 14.6379 13.1215 14.6055C13.3757 14.5732 13.6458 14.557 13.8841 14.5408C14.6466 14.4922 15.3773 14.4598 15.9651 14.0551C16.3622 13.7799 16.6799 13.359 16.9659 12.7115C17.2836 11.9992 17.6331 10.9308 17.4266 9.79758C17.4107 9.70045 17.2836 9.31193 17.2359 9.23099C17.1724 9.11767 17.1883 8.97197 17.2995 8.89103C17.4107 8.81009 17.5537 8.84247 17.6172 8.95579C17.7125 9.10148 17.8714 9.58713 17.8873 9.71664C18.062 10.7041 17.8873 11.8211 17.3789 12.9219C17.0453 13.6504 16.6799 14.1523 16.2034 14.4598C15.5203 14.9293 14.6942 14.9779 13.8841 15.0264C13.6299 15.0426 13.3757 15.0588 13.1374 15.075C12.8515 15.1074 12.502 15.1721 12.3114 15.3988C12.2161 15.5121 12.1684 15.6578 12.1049 15.8035C12.0572 15.933 11.9937 16.0787 11.9142 16.2082C11.7077 16.5481 11.3424 16.791 10.8976 16.8881C10.7387 16.8557 10.5481 16.8719 10.3574 16.8719Z" fill="white"/>
<path d="M17.5854 9.18246C17.2041 9.18246 16.807 9.10152 16.4734 8.90726C16.3622 8.84251 16.3145 8.69681 16.3622 8.58349C16.4257 8.47018 16.5687 8.42161 16.6799 8.47018C17.3789 8.84251 18.3002 8.72919 18.9039 8.21116C19.2057 7.95215 19.3963 7.62838 19.4281 7.30461C19.444 7.11035 19.4122 6.91609 19.3169 6.67327C18.888 5.54008 17.776 5.03824 16.9341 4.8116C16.7911 4.77923 16.6322 4.73066 16.4416 4.69828C16.4098 4.69828 16.3622 4.6821 16.3145 4.66591C16.2669 4.64972 16.1398 4.61734 16.0921 4.61734C16.0127 4.63353 15.9333 4.61734 15.8856 4.56878C15.8538 4.58497 15.8062 4.58497 15.7585 4.58497C14.8689 4.42308 13.9475 4.66591 13.9317 4.66591C13.8522 4.6821 13.7728 4.66591 13.7093 4.61734C13.4869 4.43927 13.3757 4.19644 13.3598 3.88887C13.3439 3.50034 13.5186 3.22514 13.6139 3.09563C13.6298 3.07945 13.6298 3.06326 13.6457 3.04707C13.7093 2.94994 13.9634 2.5938 14.0111 2.52904C14.0905 2.41572 14.2335 2.39954 14.3447 2.48048C14.4559 2.56142 14.4718 2.70711 14.3923 2.82043C14.2653 2.98232 14.0905 3.24133 14.0587 3.2899C14.0429 3.30608 14.027 3.33846 14.0111 3.35465C13.9317 3.45178 13.8363 3.61366 13.8363 3.8403C13.8363 3.986 13.884 4.08313 13.9317 4.13169C14.2176 4.06694 14.9483 3.93743 15.7109 4.05075C15.7426 4.00218 15.7903 3.90505 15.7585 3.72698C15.695 3.33846 15.3296 3.03088 15.0754 2.78806C14.9325 2.65855 14.7577 2.54523 14.583 2.43191C14.3923 2.30241 14.2017 2.18909 14.0905 2.05958L14.027 1.99483C13.8046 1.76819 13.4869 1.44442 13.4551 0.796886C13.4551 0.149351 14.0587 -0.546749 14.6147 -0.951458C14.7101 -1.01621 14.8213 -1.01621 14.9007 -0.93527C14.9801 -0.870517 15.0119 -0.74101 14.9642 -0.643879C14.9642 -0.643879 14.8689 -0.417242 14.9007 -0.206793C14.9483 0.0684092 14.996 0.278858 15.2184 0.537872C15.4726 0.829263 15.6632 0.95877 15.9968 1.18541C16.3463 1.42823 16.7593 1.83294 16.9658 2.10814C17.1565 2.36716 17.4265 2.77187 17.4583 3.27371C17.4901 3.80792 17.1882 4.09931 16.8387 4.29358C16.9182 4.30976 16.9817 4.32595 17.0611 4.34214C18.4273 4.69828 19.3646 5.44295 19.7617 6.49519C19.8411 6.70564 19.9365 7.01322 19.9047 7.35318C19.857 7.80645 19.6187 8.24354 19.2216 8.58349C18.7609 8.9882 18.1731 9.18246 17.5854 9.18246ZM14.44 -0.14204C14.1699 0.149351 13.9475 0.505495 13.9634 0.829263C13.9793 1.28254 14.2017 1.50917 14.3923 1.70344L14.4559 1.76819C14.5353 1.84913 14.6942 1.96245 14.8689 2.07577C15.0437 2.18909 15.2343 2.31859 15.409 2.46429C15.7109 2.7233 16.1715 3.12801 16.251 3.6946C16.2669 3.82411 16.2669 3.93743 16.251 4.03456C16.7275 3.8403 17.0135 3.69461 16.9817 3.30608C16.9658 2.93375 16.7434 2.62617 16.5846 2.41572C16.3939 2.1729 16.0445 1.80057 15.7267 1.59012C15.3455 1.3311 15.139 1.16922 14.8689 0.861639C14.5512 0.505495 14.4877 0.181728 14.44 -0.14204Z" fill="white"/>
</svg>
