<svg width="22" height="24" viewBox="0 0 22 24" fill="none" xmlns="http://www.w3.org/2000/svg">
<path d="M7.82226 24C7.40865 23.9249 6.99035 23.8685 6.58144 23.7746C3.58278 23.0795 1.21394 20.5808 0.687527 17.5656C-0.00338596 13.6297 2.22446 9.90998 6.01743 8.66066C6.77884 8.41174 7.56376 8.28493 8.36747 8.28963C8.80458 8.28963 9.11479 8.55734 9.11949 8.98474C9.13359 10.2434 9.13359 11.5022 9.11949 12.7562C9.11479 13.1836 8.81398 13.4325 8.36277 13.4513C6.96685 13.5076 5.88113 14.5174 5.74482 15.8841C5.60852 17.2603 6.56734 18.5237 7.93036 18.7773C9.29809 19.0309 10.6658 18.1667 11.0042 16.8235C11.07 16.5558 11.0982 16.2693 11.0982 15.9922C11.1029 10.9526 11.1029 5.91311 11.1029 0.873581C11.1029 0.248924 11.352 0 11.9818 0C13.1475 0 14.3131 0 15.4787 0C15.991 0 16.2589 0.258317 16.2777 0.770254C16.3576 3.09041 17.9557 4.88454 20.254 5.23209C20.4561 5.26027 20.6582 5.25558 20.8603 5.27436C21.288 5.31194 21.5559 5.58434 21.5559 6.00705C21.5606 7.24227 21.5653 8.4775 21.5559 9.70802C21.5512 10.1636 21.2363 10.4501 20.7663 10.4407C19.2764 10.4172 17.857 10.0932 16.5174 9.42622C16.4516 9.39335 16.3811 9.36047 16.273 9.3135C16.273 9.43092 16.273 9.52016 16.273 9.61409C16.273 11.8779 16.2918 14.1464 16.2636 16.4102C16.2166 19.9937 13.4295 23.2297 9.895 23.8544C9.5942 23.9061 9.29809 23.9483 8.99728 23.9953C8.60248 24 8.21237 24 7.82226 24ZM7.71416 9.73151C7.53556 9.75499 7.39925 9.77378 7.26295 9.79726C3.90709 10.3515 1.50064 13.6861 2.02235 17.0489C2.56286 20.5292 5.58502 22.8822 9.09599 22.5534C12.2544 22.2575 14.8207 19.5194 14.8583 16.3444C14.8912 13.6438 14.8677 10.9386 14.8677 8.23327C14.8677 8.12994 14.8677 8.02661 14.8818 7.92798C14.957 7.51468 15.3283 7.26106 15.7325 7.36438C15.8641 7.39726 15.991 7.4771 16.1038 7.55695C16.9357 8.12994 17.8382 8.54795 18.8205 8.78278C19.2482 8.88611 19.6853 8.94716 20.1506 9.0317C20.1506 8.23327 20.1553 7.49119 20.1412 6.75382C20.1412 6.70685 20.0284 6.62701 19.9579 6.61292C17.7771 6.2184 16.226 5.01605 15.3377 2.99178C15.1215 2.49863 15.0181 1.95382 14.8536 1.4184C14.1063 1.4184 13.3167 1.4184 12.5083 1.4184C12.5083 1.53112 12.5083 1.62975 12.5083 1.72838C12.5083 6.51898 12.513 11.3049 12.5083 16.0955C12.5083 18.2795 10.9149 20.0172 8.75288 20.2145C6.02213 20.4634 3.77549 17.8943 4.4288 15.236C4.83301 13.5969 5.89053 12.5777 7.52146 12.1409C7.59196 12.1221 7.70476 12.047 7.70476 11.9953C7.71886 11.2532 7.71416 10.5159 7.71416 9.73151Z" fill="#F7F9FA"/>
</svg>
