<svg width="15" height="15" viewBox="0 0 15 15" fill="none" xmlns="http://www.w3.org/2000/svg">
<g clip-path="url(#clip0_17839_12726)">
<path d="M13.75 6.92492V7.49992C13.7492 8.84768 13.3128 10.1591 12.5058 11.2386C11.6989 12.318 10.5646 13.1077 9.2721 13.4899C7.97964 13.872 6.59829 13.8261 5.33404 13.359C4.0698 12.892 2.99041 12.0287 2.25685 10.8981C1.52329 9.76744 1.17487 8.42996 1.26355 7.08511C1.35222 5.74027 1.87325 4.46012 2.74892 3.43559C3.62459 2.41105 4.80799 1.69703 6.12262 1.40001C7.43724 1.10298 8.81267 1.23888 10.0438 1.78742M13.75 2.49992L7.5 8.75617L5.625 6.88117" stroke="white" stroke-linecap="round" stroke-linejoin="round"/>
</g>
<defs>
<clipPath id="clip0_17839_12726">
<rect width="15" height="15" fill="white"/>
</clipPath>
</defs>
</svg>
