<svg width="21" height="21" viewBox="0 0 21 21" fill="none" xmlns="http://www.w3.org/2000/svg">
<path d="M7.14847 0.697998H3.50944C1.62943 0.697998 0.69873 1.6287 0.69873 3.50871V7.15704C0.69873 9.07428 1.62943 10.005 3.50944 9.95845H7.15778C9.07502 10.005 10.0057 9.07428 9.95918 7.14774V3.50871C10.0057 1.6287 9.07502 0.697998 7.14847 0.697998ZM7.22293 7.92022C6.59005 7.92022 5.97579 7.67824 5.46391 7.25011C4.88687 7.66893 4.18885 7.92022 3.43498 7.92022C3.0534 7.92022 2.73696 7.60378 2.73696 7.22219C2.73696 6.84061 3.0534 6.52417 3.43498 6.52417C4.3843 6.52417 5.17539 5.87268 5.46391 4.97921H3.43498C3.0534 4.97921 2.73696 4.66277 2.73696 4.28119C2.73696 3.8996 3.0534 3.58316 3.43498 3.58316H4.63558C4.67281 3.2295 4.96133 2.95029 5.3243 2.95029C5.68727 2.95029 5.97579 3.2295 6.01302 3.58316H6.255H6.27361H6.29223H7.21362C7.59521 3.58316 7.91164 3.8996 7.91164 4.28119C7.91164 4.66277 7.60451 4.97921 7.21362 4.97921H6.90649C6.82273 5.42595 6.64589 5.84476 6.41322 6.22635C6.66451 6.41249 6.93441 6.52417 7.22293 6.52417C7.60451 6.52417 7.92095 6.84061 7.92095 7.22219C7.92095 7.60378 7.60451 7.92022 7.22293 7.92022Z" fill="white"/>
<path d="M7.21291 20.0101C3.23883 20.0101 0 16.7712 0 12.7971C0 12.4156 0.316437 12.0991 0.698024 12.0991C1.07961 12.0991 1.39605 12.4156 1.39605 12.7971C1.39605 15.552 3.31329 17.8601 5.89132 18.4651L5.64003 18.0463C5.44459 17.7112 5.54696 17.2831 5.88201 17.0877C6.20776 16.8922 6.64519 16.9946 6.84063 17.3296L7.81787 18.9584C7.94816 19.1724 7.94816 19.4423 7.82717 19.6564C7.69688 19.8705 7.4642 20.0101 7.21291 20.0101Z" fill="white"/>
<path d="M19.311 7.91094C18.9295 7.91094 18.613 7.5945 18.613 7.21291C18.613 4.45805 16.6958 2.14991 14.1178 1.54496L14.369 1.96377C14.5645 2.29882 14.4621 2.72695 14.1271 2.92239C13.8013 3.11784 13.3639 3.01546 13.1684 2.68041L12.1912 1.05169C12.0609 0.837629 12.0609 0.567726 12.1819 0.353665C12.3122 0.139605 12.5449 0 12.7962 0C16.7702 0 20.0091 3.23883 20.0091 7.21291C20.0091 7.5945 19.6926 7.91094 19.311 7.91094Z" fill="white"/>
<path d="M14.5844 9.86694C11.9784 9.86694 9.85645 11.9796 9.85645 14.5949C9.85645 17.2008 11.9691 19.3228 14.5844 19.3228C17.1903 19.3228 19.3123 17.2102 19.3123 14.5949C19.3123 11.9796 17.1997 9.86694 14.5844 9.86694ZM16.8925 16.8379C16.5482 17.0054 16.1294 16.8751 15.9525 16.5214L15.7943 16.205H13.3838L13.2256 16.5214C13.1046 16.7634 12.8533 16.903 12.602 16.903C12.4996 16.903 12.3879 16.8751 12.2949 16.8286C11.9505 16.6517 11.8109 16.2329 11.9784 15.8886L13.9701 11.9145C14.0911 11.6818 14.3331 11.5329 14.5937 11.5329C14.8543 11.5329 15.0963 11.6818 15.2173 11.9238L17.209 15.8979C17.3765 16.2422 17.2369 16.661 16.8925 16.8379Z" fill="white"/>
<path d="M14.0806 14.8079H15.095L14.5831 13.7935L14.0806 14.8079Z" fill="white"/>
</svg>
