<svg width="21" height="16" viewBox="0 0 23 16" fill="none" xmlns="http://www.w3.org/2000/svg">
<path d="M11.4905 16C9.35999 15.9353 7.26498 15.7413 5.23211 15.0668C4.98355 14.9837 4.73498 14.8728 4.48642 14.7712C3.50993 14.3554 2.93292 13.6902 2.79088 12.5261C2.53345 10.4657 2.15173 8.43311 1.82327 6.38201C1.77889 6.08635 1.66348 5.957 1.37054 5.87385C0.518327 5.63363 -0.049812 4.76515 0.00345108 3.89667C0.0655913 2.97275 0.731379 2.17818 1.57471 2.03035C2.41804 1.88252 3.31464 2.35372 3.63422 3.19449C3.76737 3.54558 3.73186 3.97058 3.794 4.35863C3.82064 4.49721 3.8739 4.682 3.97155 4.75591C4.42428 5.07928 4.8859 5.37494 5.35639 5.66135C6.36838 6.27114 7.55793 6.08635 8.33912 5.17167C8.78298 4.65428 9.19133 4.10917 9.63519 3.59177C9.86599 3.32384 9.91925 3.11134 9.76834 2.75101C9.30673 1.63307 9.89262 0.395015 11.0023 0.0808823C11.7391 -0.131619 12.3871 0.0808823 12.902 0.644473C13.4346 1.23578 13.5766 1.95644 13.2659 2.69557C13.0884 3.11134 13.1683 3.36079 13.4346 3.66569C13.8607 4.15536 14.2513 4.682 14.6685 5.18091C15.3965 6.0494 16.6038 6.2619 17.5714 5.69831C17.891 5.51352 18.1928 5.2733 18.5212 5.107C19.0361 4.83906 19.2936 4.50645 19.2492 3.84123C19.187 2.88959 20.0304 2.05807 20.9447 2.01187C21.9478 1.95644 22.8533 2.68633 22.9776 3.66569C23.1196 4.70971 22.5781 5.61515 21.6016 5.89233C21.3175 5.97548 21.2377 6.09559 21.1933 6.38201C20.8559 8.53474 20.4742 10.6782 20.1546 12.8402C20.0304 13.6994 19.5687 14.2168 18.8763 14.5864C17.7045 15.2239 16.4351 15.5103 15.1479 15.6859C13.9406 15.8337 12.7156 15.8891 11.4905 16ZM3.63422 11.6021C6.13758 10.1886 8.81848 9.99453 11.5171 9.99453C14.2158 9.99453 16.8967 10.1886 19.3646 11.5929C19.3912 11.4913 19.4178 11.4174 19.4267 11.3434C19.7197 9.54181 20.0215 7.74017 20.3055 5.92929C20.4387 5.09776 20.421 5.08852 21.2199 4.95917C21.7792 4.86678 22.1698 4.27547 22.0277 3.74884C21.8768 3.18525 21.3353 2.87112 20.8115 3.04666C20.3055 3.21297 19.9948 3.82275 20.2257 4.34015C20.4298 4.81135 20.3144 5.08852 19.9238 5.33798C19.2847 5.7445 18.6633 6.19722 18.0064 6.57603C16.6925 7.34288 15.0414 7.07495 14.0294 5.91081C13.3725 5.15319 12.7777 4.34939 12.1474 3.58253C11.89 3.2684 11.9255 3.00046 12.1474 2.67709C12.2983 2.45535 12.4226 2.1597 12.4315 1.89176C12.4315 1.44828 12.1474 1.15263 11.7391 1.04176C11.3307 0.930887 10.9668 1.06948 10.7271 1.4298C10.4785 1.80861 10.4874 2.20589 10.7537 2.5847C11.1532 3.16677 11.1621 3.19449 10.736 3.73036C10.1767 4.44178 9.62631 5.17167 9.03154 5.85537C7.93077 7.12114 6.2441 7.36136 4.84151 6.49288C4.27337 6.13255 3.71411 5.76298 3.15485 5.39341C2.59559 5.01461 2.59559 5.00537 2.79976 4.35863C3.02169 3.63797 2.5512 2.96351 1.85878 3.0097C1.36166 3.04666 0.971063 3.47166 0.971063 3.97982C0.971063 4.48797 1.37054 4.94069 1.90317 4.96841C2.30264 4.98689 2.58671 5.07004 2.65773 5.55048C2.82639 6.6869 3.01281 7.82332 3.19923 8.95974C3.33239 9.82822 3.4833 10.6967 3.63422 11.6021ZM11.4905 14.919C11.4905 14.956 11.4994 15.0022 11.4994 15.0391C12.9375 14.8821 14.3756 14.7712 15.8048 14.5587C16.8523 14.4016 17.891 14.1244 18.7876 13.4777C19.2847 13.1174 19.3024 12.757 18.7787 12.4522C18.2194 12.1288 17.6246 11.8146 17.0032 11.6576C13.4435 10.7337 9.86599 10.7244 6.29737 11.5744C5.65821 11.7223 5.02793 11.9902 4.44204 12.3043C3.66085 12.7108 3.66085 13.1636 4.40653 13.6163C4.74386 13.8196 5.1167 13.9951 5.49842 14.1244C7.44252 14.7804 9.45764 14.956 11.4905 14.919Z" fill="white"/>
</svg>
