<svg width="28" height="29" viewBox="0 0 28 29" fill="none" xmlns="http://www.w3.org/2000/svg">
<path d="M10.0026 1.15039H4.91022C2.27936 1.15039 0.976959 2.45273 0.976959 5.08345V10.1886C0.976959 12.8714 2.27936 14.1738 4.91022 14.1087H10.0156C12.6986 14.1738 14.001 12.8714 13.9359 10.1756V5.08345C14.001 2.45273 12.6986 1.15039 10.0026 1.15039ZM10.1068 11.2565C9.22117 11.2565 8.36159 10.9179 7.64526 10.3188C6.83777 10.9049 5.86097 11.2565 4.80603 11.2565C4.27204 11.2565 3.82922 10.8137 3.82922 10.2798C3.82922 9.74582 4.27204 9.30303 4.80603 9.30303C6.13448 9.30303 7.24152 8.39139 7.64526 7.14114H4.80603C4.27204 7.14114 3.82922 6.69835 3.82922 6.16439C3.82922 5.63043 4.27204 5.18764 4.80603 5.18764H6.48613C6.53822 4.69275 6.94197 4.30205 7.4499 4.30205C7.95784 4.30205 8.36159 4.69275 8.41368 5.18764H8.75231H8.77836H8.8044H10.0938C10.6278 5.18764 11.0706 5.63043 11.0706 6.16439C11.0706 6.69835 10.6408 7.14114 10.0938 7.14114H9.66399C9.54677 7.76627 9.29932 8.35232 8.97372 8.88628C9.32537 9.14675 9.70306 9.30303 10.1068 9.30303C10.6408 9.30303 11.0836 9.74582 11.0836 10.2798C11.0836 10.8137 10.6408 11.2565 10.1068 11.2565Z" fill="url(#paint0_linear_17839_12893)"/>
<path d="M10.0934 28.1739C4.53215 28.1739 -0.000213623 23.6417 -0.000213623 18.0808C-0.000213623 17.5468 0.442604 17.104 0.976589 17.104C1.51057 17.104 1.95339 17.5468 1.95339 18.0808C1.95339 21.9357 4.63634 25.1655 8.244 26.012L7.89235 25.4259C7.61885 24.9571 7.76211 24.358 8.23098 24.0845C8.68682 23.811 9.29895 23.9543 9.57245 24.4231L10.94 26.7022C11.1223 27.0018 11.1223 27.3794 10.953 27.679C10.7707 27.9785 10.4451 28.1739 10.0934 28.1739Z" fill="url(#paint1_linear_17839_12893)"/>
<path d="M27.023 11.2437C26.489 11.2437 26.0462 10.8009 26.0462 10.2669C26.0462 6.41203 23.3633 3.18223 19.7556 2.33571L20.1073 2.92176C20.3808 3.3906 20.2375 3.98968 19.7686 4.26317C19.3128 4.53666 18.7007 4.3934 18.4272 3.92456L17.0596 1.64547C16.8773 1.34593 16.8773 0.968254 17.0466 0.668716C17.2289 0.369179 17.5545 0.173828 17.9062 0.173828C23.4675 0.173828 27.9998 4.70596 27.9998 10.2669C27.9998 10.8009 27.557 11.2437 27.023 11.2437Z" fill="url(#paint2_linear_17839_12893)"/>
<path d="M20.4084 13.9805C16.7617 13.9805 13.7922 16.9368 13.7922 20.5963C13.7922 24.2429 16.7487 27.2122 20.4084 27.2122C24.0551 27.2122 27.0246 24.2559 27.0246 20.5963C27.0246 16.9368 24.0682 13.9805 20.4084 13.9805ZM23.6384 23.735C23.1565 23.9694 22.5704 23.7871 22.3229 23.2922L22.1015 22.8494H18.7283L18.5069 23.2922C18.3376 23.6308 17.9859 23.8261 17.6343 23.8261C17.491 23.8261 17.3347 23.7871 17.2045 23.722C16.7226 23.4745 16.5273 22.8885 16.7617 22.4066L19.5488 16.8456C19.7181 16.52 20.0568 16.3117 20.4214 16.3117C20.7861 16.3117 21.1247 16.52 21.294 16.8586L24.0812 22.4196C24.3156 22.9015 24.1203 23.4875 23.6384 23.735Z" fill="url(#paint3_linear_17839_12893)"/>
<path d="M19.7038 20.8946H21.1234L20.4071 19.4751L19.7038 20.8946Z" fill="url(#paint4_linear_17839_12893)"/>
<defs>
<linearGradient id="paint0_linear_17839_12893" x1="0.976959" y1="7.63069" x2="13.9382" y2="7.63069" gradientUnits="userSpaceOnUse">
<stop stop-color="#139DBC"/>
<stop offset="1" stop-color="#36C8BD"/>
</linearGradient>
<linearGradient id="paint1_linear_17839_12893" x1="-0.000213664" y1="22.6389" x2="11.0784" y2="22.6389" gradientUnits="userSpaceOnUse">
<stop stop-color="#139DBC"/>
<stop offset="1" stop-color="#36C8BD"/>
</linearGradient>
<linearGradient id="paint2_linear_17839_12893" x1="16.9212" y1="5.70877" x2="27.9998" y2="5.70877" gradientUnits="userSpaceOnUse">
<stop stop-color="#139DBC"/>
<stop offset="1" stop-color="#36C8BD"/>
</linearGradient>
<linearGradient id="paint3_linear_17839_12893" x1="13.7922" y1="20.5963" x2="27.0246" y2="20.5963" gradientUnits="userSpaceOnUse">
<stop stop-color="#139DBC"/>
<stop offset="1" stop-color="#36C8BD"/>
</linearGradient>
<linearGradient id="paint4_linear_17839_12893" x1="19.7038" y1="20.1849" x2="21.1234" y2="20.1849" gradientUnits="userSpaceOnUse">
<stop stop-color="#139DBC"/>
<stop offset="1" stop-color="#36C8BD"/>
</linearGradient>
</defs>
</svg>
