<svg width="28" height="28" viewBox="0 0 28 28" fill="none" xmlns="http://www.w3.org/2000/svg">
<path d="M17.6996 27.4937H9.97615C6.53936 27.4937 4.20727 26.7576 2.72472 25.2751C1.24217 23.7926 0.506007 21.4606 0.506007 18.0239V10.3006C0.506007 6.86391 1.24217 4.53189 2.72472 3.04937C4.20727 1.56686 6.53936 0.830715 9.97615 0.830715H12.5506C12.799 0.830715 13.0101 1.04183 13.0101 1.29012C13.0101 1.5384 12.799 1.74952 12.5506 1.74952H9.97615C6.97335 1.74952 4.78706 2.27836 3.37039 3.69499C1.95372 5.11162 1.42486 7.29787 1.42486 10.3006V18.0239C1.42486 21.0266 1.95372 23.2128 3.37039 24.6295C4.78706 26.0461 6.97335 26.5749 9.97615 26.5749H17.6996C20.7024 26.5749 22.8887 26.0461 24.3054 24.6295C25.7221 23.2128 26.2509 21.0266 26.2509 18.0239V15.4494C26.2509 15.2012 26.462 14.99 26.7103 14.99C26.9587 14.99 27.1698 15.2012 27.1698 15.4494V18.0239C27.1698 21.4606 26.4336 23.7926 24.9511 25.2751C23.4685 26.7576 21.1364 27.4937 17.6996 27.4937Z" fill="white" stroke="url(#paint0_linear_17839_12905)" stroke-width="1.01201"/>
<path d="M7.03889 18.2521L7.03916 18.2503L7.59268 14.3758L7.59301 14.3733C7.68053 13.7389 8.11766 12.874 8.56945 12.4222L8.21166 12.0644L8.56945 12.4222L18.7129 2.27897C19.9372 1.0547 21.1065 0.506008 22.2168 0.506008C23.3271 0.506008 24.4965 1.0547 25.7208 2.27897L26.0786 1.92116L25.7208 2.27897C27.0574 3.61558 27.5899 4.90433 27.4799 6.13404C27.3789 7.13652 26.8414 8.16547 25.7227 9.27178L25.7208 9.27376L15.5773 19.417C15.1255 19.8688 14.2606 20.3059 13.6261 20.3934L13.6237 20.3938L9.74915 20.9473L9.72788 20.9503L9.70694 20.9552C9.60437 20.9788 9.49373 20.9808 9.33156 20.9808C8.6703 20.9808 8.07998 20.7438 7.6533 20.3288C7.15156 19.8255 6.91755 19.0794 7.03889 18.2521ZM19.3633 2.92627L19.3618 2.9278L9.21834 13.0711C9.04157 13.2478 8.88098 13.5045 8.7622 13.7403C8.64336 13.9761 8.53399 14.2555 8.49675 14.4976L8.49672 14.4976L8.49595 14.5029L7.94243 18.3774L7.9421 18.3799C7.87776 18.8463 7.96051 19.3382 8.3044 19.6821C8.64828 20.026 9.14018 20.1087 9.60666 20.0444L9.60908 20.0441L13.4836 19.4906L13.4836 19.4906L13.489 19.4898C13.7297 19.4527 14.0116 19.3441 14.2498 19.225C14.4828 19.1085 14.744 18.9472 14.9197 18.764L25.059 8.62492C25.9266 7.75735 26.4632 6.9054 26.5438 6.03541L26.5438 6.03527C26.6416 4.97571 26.0774 3.94669 25.0613 2.91727L25.059 2.91493C23.9793 1.83523 22.9703 1.3492 21.9562 1.44305C20.9707 1.53427 20.1316 2.16459 19.3633 2.92627Z" fill="white" stroke="url(#paint1_linear_17839_12905)" stroke-width="1.01201"/>
<path d="M23.8451 10.8504L23.8337 10.8466L23.8221 10.8434C20.6069 9.93872 18.0495 7.38179 17.1442 4.1669C17.078 3.9236 17.2139 3.67024 17.4658 3.59156C17.7127 3.5268 17.9563 3.66837 18.0224 3.90869L18.0224 3.9087L18.0233 3.91172C18.8434 6.82305 21.1514 9.13096 24.0627 9.95105L24.0627 9.95106L24.0658 9.95189C24.3021 10.0169 24.4514 10.2723 24.3814 10.5269L24.3802 10.5316C24.3264 10.7346 24.1512 10.8631 23.9425 10.8631C23.8969 10.8631 23.8621 10.8561 23.8451 10.8504Z" fill="white" stroke="url(#paint2_linear_17839_12905)" stroke-width="1.01201"/>
<defs>
<linearGradient id="paint0_linear_17839_12905" x1="-1.031e-07" y1="14.1622" x2="27.6758" y2="14.1622" gradientUnits="userSpaceOnUse">
<stop stop-color="#139DBC"/>
<stop offset="1" stop-color="#36C8BD"/>
</linearGradient>
<linearGradient id="paint1_linear_17839_12905" x1="6.50146" y1="10.7434" x2="28" y2="10.7434" gradientUnits="userSpaceOnUse">
<stop stop-color="#139DBC"/>
<stop offset="1" stop-color="#36C8BD"/>
</linearGradient>
<linearGradient id="paint2_linear_17839_12905" x1="16.6213" y1="7.21945" x2="24.9047" y2="7.21945" gradientUnits="userSpaceOnUse">
<stop stop-color="#139DBC"/>
<stop offset="1" stop-color="#36C8BD"/>
</linearGradient>
</defs>
</svg>
